<svg width="3548" height="5125" xmlns="http://www.w3.org/2000/svg" xmlns:xlink="http://www.w3.org/1999/xlink" overflow="hidden"><defs><clipPath id="clip0"><rect x="393" y="375" width="3548" height="5125"/></clipPath></defs><g clip-path="url(#clip0)" transform="translate(-393 -375)"><path d="M483.5 559.501C483.5 523.602 512.602 494.5 548.501 494.5L1328.5 494.5C1364.4 494.5 1393.5 523.602 1393.5 559.501L1393.5 819.499C1393.5 855.398 1364.4 884.5 1328.5 884.5L548.501 884.5C512.602 884.5 483.5 855.398 483.5 819.499Z" stroke="#000000" stroke-width="6.875" stroke-miterlimit="8" fill="none" fill-rule="evenodd"/><text font-family="Arial,Arial_MSFontService,sans-serif" font-weight="700" font-size="64" transform="matrix(1 0 0 1 848.237 575)">Home<tspan font-weight="400" font-size="55" x="-313.66" y="69">•</tspan><tspan font-weight="400" font-size="55" x="-282.035" y="69">Landing page</tspan><tspan font-weight="400" font-size="55" x="-313.66" y="135">•</tspan><tspan font-weight="400" font-size="55" x="-282.035" y="135">Introduction to EDTox</tspan><tspan font-weight="400" font-size="55" x="-313.66" y="201">•</tspan><tspan font-weight="400" font-size="55" x="-282.035" y="201">Data used</tspan></text><path d="M1649.5 575.836C1649.5 503.301 1708.3 444.5 1780.84 444.5L2427.16 444.5C2499.7 444.5 2558.5 503.301 2558.5 575.836L2558.5 1101.16C2558.5 1173.7 2499.7 1232.5 2427.16 1232.5L1780.84 1232.5C1708.3 1232.5 1649.5 1173.7 1649.5 1101.16Z" stroke="#000000" stroke-width="6.875" stroke-miterlimit="8" fill="none" fill-rule="evenodd"/><text font-family="Arial,Arial_MSFontService,sans-serif" font-weight="700" font-size="64" transform="matrix(1 0 0 1 1956.99 545)">Summary</text><rect x="1684.5" y="624.5" width="841" height="175" stroke="#2F528F" stroke-width="4.58333" stroke-miterlimit="8" fill="none"/><text font-family="Arial,Arial_MSFontService,sans-serif" font-weight="400" font-size="55" transform="matrix(1 0 0 1 1752.32 691)">Distribution of EDC scores of <tspan font-size="55" x="166.421" y="66">CTD chemicals</tspan></text><rect x="1676.5" y="854.5" width="840" height="157" stroke="#2F528F" stroke-width="4.58333" stroke-miterlimit="8" fill="none"/><text font-family="Arial,Arial_MSFontService,sans-serif" font-weight="400" font-size="55" transform="matrix(1 0 0 1 1716.28 912)">Bar plot of number of pathways <tspan font-size="55" x="110.848" y="66">included in application</tspan></text><rect x="1677.5" y="1063.5" width="841" height="98" stroke="#000000" stroke-width="4.58333" stroke-miterlimit="8" fill="none"/><text font-family="Arial,Arial_MSFontService,sans-serif" font-weight="400" font-size="55" transform="matrix(1 0 0 1 1714.89 1125)">Box plot of classifier accuracies</text><path d="M1621.5 1515C1621.5 1427.46 1692.46 1356.5 1780 1356.5L2414 1356.5C2501.54 1356.5 2572.5 1427.46 2572.5 1515L2572.5 2287C2572.5 2374.54 2501.54 2445.5 2414 2445.5L1780 2445.5C1692.46 2445.5 1621.5 2374.54 1621.5 2287Z" stroke="#000000" stroke-width="6.875" stroke-miterlimit="8" fill="none" fill-rule="evenodd"/><text font-family="Arial,Arial_MSFontService,sans-serif" font-weight="700" font-size="64" transform="matrix(1 0 0 1 1712.56 1464)">Toxicogenomics Pipeline</text><rect x="1679.5" y="1552.5" width="840" height="179" stroke="#2F528F" stroke-width="4.58333" stroke-miterlimit="8" fill="none"/><text font-family="Arial,Arial_MSFontService,sans-serif" font-weight="400" font-size="55" transform="matrix(1 0 0 1 1806.43 1622)">Add and optimize a new <tspan font-size="55" x="-80.4833" y="66">toxicogenomic</tspan><tspan font-size="55" x="269.569" y="66">-</tspan><tspan font-size="55" x="287.902" y="66">based gene net</tspan></text><rect x="1679.5" y="1777.5" width="841" height="179" stroke="#2F528F" stroke-width="4.58333" stroke-miterlimit="8" fill="none"/><text font-family="Arial,Arial_MSFontService,sans-serif" font-weight="400" font-size="55" transform="matrix(1 0 0 1 1730.53 1846)">Training new ED-<tspan font-size="55" x="423.386" y="0">classifiers by </tspan><tspan font-size="55" x="5.72913" y="66">using the gene nets and MIEs</tspan></text><rect x="1680.5" y="2008.5" width="841" height="158" stroke="#2F528F" stroke-width="4.58333" stroke-miterlimit="8" fill="none"/><text font-family="Arial,Arial_MSFontService,sans-serif" font-weight="400" font-size="55" transform="matrix(1 0 0 1 1758.01 2067)">Prediction on new ‘untested’ <tspan font-size="55" x="201.094" y="66">compounds </tspan></text><path d="M2816.5 1515.5C2816.5 1431.55 2884.55 1363.5 2968.5 1363.5L3576.5 1363.5C3660.45 1363.5 3728.5 1431.55 3728.5 1515.5L3728.5 2228.5C3728.5 2312.45 3660.45 2380.5 3576.5 2380.5L2968.5 2380.5C2884.55 2380.5 2816.5 2312.45 2816.5 2228.5Z" stroke="#000000" stroke-width="6.875" stroke-miterlimit="8" fill="none" fill-rule="evenodd"/><text font-family="Arial,Arial_MSFontService,sans-serif" font-style="italic" font-weight="400" font-size="64" transform="matrix(1 0 0 1 3176.09 1469)">Output</text><rect x="2850.5" y="1562.5" width="841" height="153" stroke="#2F528F" stroke-width="4.58333" stroke-miterlimit="8" fill="none"/><text font-family="Arial,Arial_MSFontService,sans-serif" font-weight="400" font-size="55" transform="matrix(1 0 0 1 3149.89 1651)">F1 scores</text><rect x="2850.5" y="1754.5" width="841" height="152" stroke="#2F528F" stroke-width="4.58333" stroke-miterlimit="8" fill="none"/><text font-family="Arial,Arial_MSFontService,sans-serif" font-weight="400" font-size="55" transform="matrix(1 0 0 1 3049.63 1843)">Model parameters</text><rect x="2850.5" y="1945.5" width="841" height="152" stroke="#4472C4" stroke-width="4.58333" stroke-miterlimit="8" fill="none"/><text font-family="Arial,Arial_MSFontService,sans-serif" font-weight="400" font-size="55" transform="matrix(1 0 0 1 2953.38 2034)">Pathway activation scores</text><rect x="2850.5" y="2136.5" width="841" height="153" stroke="#2F528F" stroke-width="4.58333" stroke-miterlimit="8" fill="none"/><text font-family="Arial,Arial_MSFontService,sans-serif" font-weight="400" font-size="55" transform="matrix(1 0 0 1 2883.77 2225)">Predicted ED<tspan font-size="55" x="323.125" y="0">-</tspan><tspan font-size="55" x="341.459" y="0">class probabilities</tspan></text><path d="M1647.5 2663.84C1647.5 2586.88 1709.88 2524.5 1786.84 2524.5L2420.16 2524.5C2497.12 2524.5 2559.5 2586.88 2559.5 2663.84L2559.5 3221.16C2559.5 3298.12 2497.12 3360.5 2420.16 3360.5L1786.84 3360.5C1709.88 3360.5 1647.5 3298.12 1647.5 3221.16Z" stroke="#000000" stroke-width="6.875" stroke-miterlimit="8" fill="none" fill-rule="evenodd"/><text font-family="Arial,Arial_MSFontService,sans-serif" font-weight="700" font-size="64" transform="matrix(1 0 0 1 1815.77 2627)">Pathway activation <tspan font-size="64" x="184.479" y="77">scores</tspan></text><rect x="1679.5" y="2774.5" width="840" height="279" stroke="#2F528F" stroke-width="4.58333" stroke-miterlimit="8" fill="none"/><text font-family="Arial,Arial_MSFontService,sans-serif" font-weight="400" font-size="55" transform="matrix(1 0 0 1 1717.93 2868)">Select pathways based on their <tspan font-size="55" x="73.0354" y="66">average scores and GLM </tspan><tspan font-size="55" x="243.765" y="132">coefficients</tspan></text><rect x="1679.5" y="3090.5" width="841" height="161" stroke="#2F528F" stroke-width="4.58333" stroke-miterlimit="8" fill="#D9D9D9"/><text font-family="Arial,Arial_MSFontService,sans-serif" font-weight="700" font-size="55" transform="matrix(1 0 0 1 1728.81 3158)">Uses: <tspan font-weight="400" font-size="55" x="164.427" y="0">Identification of putative </tspan><tspan font-weight="400" font-size="55" x="80.5062" y="66">mode of action of EDCs</tspan></text><path d="M1655.5 3590.5C1655.5 3506.55 1723.55 3438.5 1807.5 3438.5L2415.5 3438.5C2499.45 3438.5 2567.5 3506.55 2567.5 3590.5L2567.5 4217.5C2567.5 4301.45 2499.45 4369.5 2415.5 4369.5L1807.5 4369.5C1723.55 4369.5 1655.5 4301.45 1655.5 4217.5Z" stroke="#000000" stroke-width="6.875" stroke-miterlimit="8" fill="none" fill-rule="evenodd"/><text font-family="Arial,Arial_MSFontService,sans-serif" font-weight="700" font-size="64" transform="matrix(1 0 0 1 1780.15 3545)">EDC<tspan font-size="64" x="135.781" y="0">-</tspan><tspan font-size="64" x="156.979" y="0">class probability</tspan></text><rect x="1686.5" y="3610.5" width="841" height="161" stroke="#2F528F" stroke-width="4.58333" stroke-miterlimit="8" fill="none"/><text font-family="Arial,Arial_MSFontService,sans-serif" font-weight="400" font-size="55" transform="matrix(1 0 0 1 1740.75 3678)">Average and harmonic sum of <tspan font-size="55" x="15.4688" y="66">EDC</tspan><tspan font-size="55" x="131.198" y="66">-</tspan><tspan font-size="55" x="149.531" y="66">class probability scores</tspan></text><rect x="1686.5" y="3816.5" width="841" height="162" stroke="#2F528F" stroke-width="4.58333" stroke-miterlimit="8" fill="none"/><text font-family="Arial,Arial_MSFontService,sans-serif" font-weight="400" font-size="55" transform="matrix(1 0 0 1 1755.93 3885)">Plot of compound EDC<tspan font-size="55" x="558.021" y="0">-</tspan><tspan font-size="55" x="576.354" y="0">class </tspan><tspan font-size="55" x="137.5" y="66">probability scores</tspan></text><rect x="1684.5" y="4023.5" width="841" height="270" stroke="#2F528F" stroke-width="4.58333" stroke-miterlimit="8" fill="#D9D9D9"/><text font-family="Arial,Arial_MSFontService,sans-serif" font-weight="700" font-size="55" transform="matrix(1 0 0 1 1723.67 4113)">Uses: <tspan font-weight="400" font-size="55" x="164.427" y="0">Comparison of the EDC</tspan><tspan font-weight="400" font-size="55" x="743.646" y="0">-</tspan><tspan font-weight="400" font-size="55" x="34.077" y="66">class probabilities generated </tspan><tspan font-weight="400" font-size="55" x="91.0938" y="132">from different classifiers</tspan></text><path d="M1643.5 4612.5C1643.5 4528.55 1711.55 4460.5 1795.5 4460.5L2403.5 4460.5C2487.45 4460.5 2555.5 4528.55 2555.5 4612.5L2555.5 5280.5C2555.5 5364.45 2487.45 5432.5 2403.5 5432.5L1795.5 5432.5C1711.55 5432.5 1643.5 5364.45 1643.5 5280.5Z" stroke="#000000" stroke-width="6.875" stroke-miterlimit="8" fill="none" fill-rule="evenodd"/><text font-family="Arial,Arial_MSFontService,sans-serif" font-weight="700" font-size="64" transform="matrix(1 0 0 1 1743.42 4566)">Comparison with ToxPi <tspan font-size="64" x="248.646" y="77">Scores </tspan></text><rect x="1674.5" y="4682.5" width="841" height="228" stroke="#2F528F" stroke-width="4.58333" stroke-miterlimit="8" fill="none"/><text font-family="Arial,Arial_MSFontService,sans-serif" font-weight="400" font-size="55" transform="matrix(1 0 0 1 1743.55 4743)">Scatter plot of average EDC<tspan font-size="55" x="683.49" y="0">-</tspan><tspan font-size="55" x="14.3229" y="66">class probability scores and </tspan><tspan font-size="55" x="192.225" y="132">ToxPi scores</tspan></text><rect x="1674.5" y="4951.5" width="841" height="161" stroke="#2F528F" stroke-width="4.58333" stroke-miterlimit="8" fill="none"/><text font-family="Arial,Arial_MSFontService,sans-serif" font-weight="400" font-size="55" transform="matrix(1 0 0 1 1773.34 5044)">Table of compound details</text><rect x="1680.5" y="5151.5" width="841" height="205" stroke="#2F528F" stroke-width="4.58333" stroke-miterlimit="8" fill="#D9D9D9"/><text font-family="Arial,Arial_MSFontService,sans-serif" font-weight="700" font-size="55" transform="matrix(1 0 0 1 1774.24 5200)">Uses: <tspan font-weight="400" font-size="55" x="164.427" y="0">Comparison of EDC </tspan><tspan font-weight="400" font-size="55" x="-22.9166" y="66">potential identified by EDTox </tspan><tspan font-weight="400" font-size="55" x="170.431" y="132">and ToxCast</tspan></text><path d="M479.5 1513.5C479.5 1429.55 547.554 1361.5 631.503 1361.5L1239.5 1361.5C1323.45 1361.5 1391.5 1429.55 1391.5 1513.5L1391.5 2987.5C1391.5 3071.45 1323.45 3139.5 1239.5 3139.5L631.503 3139.5C547.554 3139.5 479.5 3071.45 479.5 2987.5Z" stroke="#000000" stroke-width="6.875" stroke-miterlimit="8" fill="none" fill-rule="evenodd"/><text font-family="Arial,Arial_MSFontService,sans-serif" font-style="italic" font-weight="400" font-size="64" transform="matrix(1 0 0 1 863.644 1467)">Input</text><rect x="511.5" y="1545.5" width="841" height="195" stroke="#2F528F" stroke-width="4.58333" stroke-miterlimit="8" fill="none"/><text font-family="Arial,Arial_MSFontService,sans-serif" font-weight="400" font-size="55" transform="matrix(1 0 0 1 565.922 1622)">Weighted undirected gene co<tspan font-size="55" x="712.708" y="0">-</tspan><tspan font-size="55" x="129.479" y="66">expression network</tspan></text><rect x="511.5" y="1804.5" width="841" height="195" stroke="#2F528F" stroke-width="4.58333" stroke-miterlimit="8" fill="none"/><text font-family="Arial,Arial_MSFontService,sans-serif" font-weight="400" font-size="55" transform="matrix(1 0 0 1 577.381 1914)">List of EDCs along with MIEs</text><rect x="511.5" y="2063.5" width="841" height="195" stroke="#2F528F" stroke-width="4.58333" stroke-miterlimit="8" fill="none"/><text font-family="Arial,Arial_MSFontService,sans-serif" font-weight="400" font-size="55" transform="matrix(1 0 0 1 562.198 2173)">List of decoys along with MIEs</text><rect x="511.5" y="2322.5" width="841" height="195" stroke="#2F528F" stroke-width="4.58333" stroke-miterlimit="8" fill="none"/><text font-family="Arial,Arial_MSFontService,sans-serif" font-weight="400" font-size="55" transform="matrix(1 0 0 1 591.703 2399)">List of unknown compounds <tspan font-size="55" x="146.094" y="66">along with MIEs</tspan></text><rect x="511.5" y="2581.5" width="841" height="195" stroke="#2F528F" stroke-width="4.58333" stroke-miterlimit="8" fill="none"/><text font-family="Arial,Arial_MSFontService,sans-serif" font-weight="400" font-size="55" transform="matrix(1 0 0 1 571.652 2691)">Names of compounds in CTD</text><rect x="511.5" y="2840.5" width="841" height="195" stroke="#2F528F" stroke-width="4.58333" stroke-miterlimit="8" fill="none"/><text font-family="Arial,Arial_MSFontService,sans-serif" font-weight="400" font-size="55" transform="matrix(1 0 0 1 581.105 2917)">Name of new compound and <tspan font-size="55" x="215.715" y="66">list of MIEs</tspan></text><path d="M482.5 3590.5C482.5 3506.55 550.554 3438.5 634.504 3438.5L1242.5 3438.5C1326.45 3438.5 1394.5 3506.55 1394.5 3590.5L1394.5 4957.5C1394.5 5041.45 1326.45 5109.5 1242.5 5109.5L634.504 5109.5C550.554 5109.5 482.5 5041.45 482.5 4957.5Z" stroke="#000000" stroke-width="6.875" stroke-miterlimit="8" fill="none" fill-rule="evenodd"/><text font-family="Arial,Arial_MSFontService,sans-serif" font-style="italic" font-weight="400" font-size="64" transform="matrix(1 0 0 1 648.185 3545)">Optional parameters</text><rect x="533.5" y="3620.5" width="805" height="156" stroke="#2F528F" stroke-width="4.58333" stroke-miterlimit="8" fill="none"/><text font-family="Arial,Arial_MSFontService,sans-serif" font-weight="400" font-size="55" transform="matrix(1 0 0 1 618.343 3710)">GLM Coefficient threshold</text><rect x="533.5" y="3830.5" width="805" height="156" stroke="#2F528F" stroke-width="4.58333" stroke-miterlimit="8" fill="none"/><text font-family="Arial,Arial_MSFontService,sans-serif" font-weight="400" font-size="55" transform="matrix(1 0 0 1 632.093 3920)">Pathway activation score</text><rect x="533.5" y="4040.5" width="805" height="156" stroke="#2F528F" stroke-width="4.58333" stroke-miterlimit="8" fill="none"/><text font-family="Arial,Arial_MSFontService,sans-serif" font-weight="400" font-size="55" transform="matrix(1 0 0 1 696.26 4131)">Pathway databases</text><rect x="533.5" y="4250.5" width="805" height="156" stroke="#2F528F" stroke-width="4.58333" stroke-miterlimit="8" fill="none"/><text font-family="Arial,Arial_MSFontService,sans-serif" font-weight="400" font-size="55" transform="matrix(1 0 0 1 809.125 4341)">Classifiers</text><rect x="533.5" y="4460.5" width="805" height="156" stroke="#2F528F" stroke-width="4.58333" stroke-miterlimit="8" fill="none"/><text font-family="Arial,Arial_MSFontService,sans-serif" font-weight="400" font-size="55" transform="matrix(1 0 0 1 671.625 4551)">Minimum ToxPi score</text><rect x="533.5" y="4670.5" width="805" height="156" stroke="#2F528F" stroke-width="4.58333" stroke-miterlimit="8" fill="none"/><text font-family="Arial,Arial_MSFontService,sans-serif" font-weight="400" font-size="55" transform="matrix(1 0 0 1 687.093 4728)">Minimum EDC<tspan font-size="55" x="353.49" y="0">-</tspan><tspan font-size="55" x="371.823" y="0">class </tspan><tspan font-size="55" x="48.9958" y="66">probability score</tspan></text><rect x="533.5" y="4880.5" width="805" height="156" stroke="#2F528F" stroke-width="4.58333" stroke-miterlimit="8" fill="none"/><text font-family="Arial,Arial_MSFontService,sans-serif" font-weight="400" font-size="55" transform="matrix(1 0 0 1 710.01 4971)">Plot click precision</text><path d="M1493 1641 1493 2160.69" stroke="#FF0000" stroke-width="10.3125" stroke-miterlimit="8" stroke-dasharray="41.25 30.9375" fill="none" fill-rule="evenodd"/><path d="M0 0 142.746 1.0105" stroke="#FF0000" stroke-width="10.3125" stroke-miterlimit="8" stroke-dasharray="41.25 30.9375" fill="none" fill-rule="evenodd" transform="matrix(1 0 0 -1 1352 1642.01)"/><path d="M0 0 142.746 1.0105" stroke="#FF0000" stroke-width="10.3125" stroke-miterlimit="8" stroke-dasharray="41.25 30.9375" fill="none" fill-rule="evenodd" transform="matrix(1 0 0 -1 1349 1902.01)"/><path d="M0 0 142.746 1.0105" stroke="#FF0000" stroke-width="10.3125" stroke-miterlimit="8" stroke-dasharray="41.25 30.9375" fill="none" fill-rule="evenodd" transform="matrix(1 0 0 -1 1349 2161.01)"/><path d="M0.0278693-5.15617 41.2773-4.93322 41.2215 5.37913-0.0278693 5.15617ZM72.2143-4.766 113.464-4.54305 113.408 5.7693 72.1586 5.54635ZM144.401-4.37583 161.135-4.28538 161.079 6.02697 144.345 5.93652ZM156.035-14.6256 186.888 1.01014 155.867 16.3114Z" fill="#FF0000" transform="matrix(1 0 0 -1 1492 1872.01)"/><path d="M0-5.15625 41.25-5.15625 41.25 5.15625 0 5.15625ZM72.1875-5.15625 113.438-5.15625 113.438 5.15625 72.1875 5.15625ZM144.375-5.15625 169.385-5.15625 169.385 21.3962 159.073 21.3962 159.073 0 164.229 5.15625 144.375 5.15625ZM169.385 52.3337 169.385 93.5837 159.073 93.5837 159.073 52.3337ZM169.385 124.521 169.385 165.771 159.073 165.771 159.073 124.521ZM169.385 196.709 169.385 237.959 159.073 237.959 159.073 196.709ZM169.385 268.896 169.385 310.146 159.073 310.146 159.073 268.896ZM172.632 327.524 213.882 327.524 213.882 337.837 172.632 337.837ZM244.819 327.524 286.069 327.524 286.069 337.837 244.819 337.837ZM297.52 317.212 328.458 332.681 297.52 348.149Z" fill="#00B050" transform="matrix(1 0 0 -1 1352 2419.68)"/><path d="M1518 2678 1518 3964.22" stroke="#0070C0" stroke-width="10.3125" stroke-miterlimit="8" stroke-dasharray="41.25 30.9375" fill="none" fill-rule="evenodd"/><path d="M1352 2679 1518.27 2679" stroke="#0070C0" stroke-width="10.3125" stroke-miterlimit="8" stroke-dasharray="41.25 30.9375" fill="none" fill-rule="evenodd"/><path d="M1350 2942 1516.27 2942" stroke="#0070C0" stroke-width="10.3125" stroke-miterlimit="8" stroke-dasharray="41.25 30.9375" fill="none" fill-rule="evenodd"/><path d="M1516 3958.84 1557.25 3958.84 1557.25 3969.16 1516 3969.16ZM1588.19 3958.84 1629.44 3958.84 1629.44 3969.16 1588.19 3969.16ZM1627.98 3948.53 1658.91 3964 1627.98 3979.47Z" fill="#0070C0"/><path d="M0 0 0.000360892 1097.71" stroke="#7F7F7F" stroke-width="10.3125" stroke-miterlimit="8" stroke-dasharray="41.25 30.9375" fill="none" fill-rule="evenodd" transform="matrix(-1 0 0 1 1433 3185)"/><path d="M1338 3698 1432.84 3698" stroke="#7F7F7F" stroke-width="10.3125" stroke-miterlimit="8" stroke-dasharray="41.25 30.9375" fill="none" fill-rule="evenodd"/><path d="M1340 3910 1434.84 3910" stroke="#7F7F7F" stroke-width="10.3125" stroke-miterlimit="8" stroke-dasharray="41.25 30.9375" fill="none" fill-rule="evenodd"/><path d="M1338 4117 1432.84 4117" stroke="#7F7F7F" stroke-width="10.3125" stroke-miterlimit="8" stroke-dasharray="41.25 30.9375" fill="none" fill-rule="evenodd"/><path d="M1337 4282 1431.84 4282" stroke="#7F7F7F" stroke-width="10.3125" stroke-miterlimit="8" stroke-dasharray="41.25 30.9375" fill="none" fill-rule="evenodd"/><path d="M1435 3179.84 1476.25 3179.84 1476.25 3190.16 1435 3190.16ZM1507.19 3179.84 1548.44 3179.84 1548.44 3190.16 1507.19 3190.16ZM1579.38 3179.84 1620.63 3179.84 1620.63 3190.16 1579.38 3190.16ZM1616.78 3169.53 1647.72 3185 1616.78 3200.47Z" fill="#7F7F7F"/><path d="M0-5.15625 41.25-5.15625 41.25 5.15625 0 5.15625ZM72.1875-5.15625 113.438-5.15625 113.438 5.15625 72.1875 5.15625ZM144.375-5.15625 165.508-5.15625 165.508 25.2735 155.195 25.2735 155.195 0 160.352 5.15625 144.375 5.15625ZM165.508 56.211 165.508 97.461 155.195 97.461 155.195 56.211ZM165.508 128.398 165.508 169.648 155.195 169.648 155.195 128.398ZM165.508 200.586 165.508 210.612 160.352 205.456 191.575 205.456 191.575 215.769 155.195 215.769 155.195 200.586ZM222.513 205.456 263.763 205.456 263.763 215.769 222.513 215.769ZM294.7 205.456 294.922 205.456 294.922 215.769 294.7 215.769ZM289.766 195.144 320.703 210.612 289.766 226.081Z" fill="#7030A0" transform="matrix(1 0 0 -1 1338 4327.61)"/><path d="M1436 4375 1436 5005.12" stroke="#7030A0" stroke-width="10.3125" stroke-miterlimit="8" stroke-dasharray="41.25 30.9375" fill="none" fill-rule="evenodd"/><path d="M1337 4379 1434.85 4379" stroke="#7030A0" stroke-width="10.3125" stroke-miterlimit="8" stroke-dasharray="41.25 30.9375" fill="none" fill-rule="evenodd"/><path d="M1340 4544 1437.85 4544" stroke="#7030A0" stroke-width="10.3125" stroke-miterlimit="8" stroke-dasharray="41.25 30.9375" fill="none" fill-rule="evenodd"/><path d="M1337 4751 1434.85 4751" stroke="#7030A0" stroke-width="10.3125" stroke-miterlimit="8" stroke-dasharray="41.25 30.9375" fill="none" fill-rule="evenodd"/><path d="M1337 4969 1434.85 4969" stroke="#7030A0" stroke-width="10.3125" stroke-miterlimit="8" stroke-dasharray="41.25 30.9375" fill="none" fill-rule="evenodd"/><path d="M1436.13 4994.85 1477.37 4995.91 1477.1 5006.22 1435.87 5005.15ZM1508.3 4996.7 1549.53 4997.76 1549.27 5008.07 1508.03 5007.01ZM1580.46 4998.56 1594.51 4998.92 1594.25 5009.23 1580.19 5008.87ZM1589.62 4988.48 1620.15 5004.74 1588.83 5019.4Z" fill="#7030A0"/><path d="M0 0 2.5959 392.462" stroke="#FF0000" stroke-width="10.3125" stroke-miterlimit="8" fill="none" fill-rule="evenodd" transform="matrix(-1 0 0 1 2719.6 1633)"/><path d="M2720 1633.84 2824.68 1633.84 2824.68 1644.16 2720 1644.16ZM2819.52 1623.53 2850.46 1639 2819.52 1654.47Z" fill="#FF0000"/><path d="M2719 1831.84 2823.68 1831.84 2823.68 1842.16 2719 1842.16ZM2818.52 1821.53 2849.46 1837 2818.52 1852.47Z" fill="#FF0000"/><path d="M2720 2015.84 2824.68 2015.84 2824.68 2026.16 2720 2026.16ZM2819.52 2005.53 2850.46 2021 2819.52 2036.47Z" fill="#FF0000"/><path d="M2525 1841 2717.06 1841" stroke="#FF0000" stroke-width="10.3125" stroke-miterlimit="8" fill="none" fill-rule="evenodd"/><path d="M2646 1807 2646 2081.35" stroke="#00B050" stroke-width="10.3125" stroke-miterlimit="8" stroke-dasharray="41.25 30.9375" fill="none" fill-rule="evenodd"/><path d="M2646 1798 2861.68 1798" stroke="#00B050" stroke-width="10.3125" stroke-miterlimit="8" stroke-dasharray="41.25 30.9375" fill="none" fill-rule="evenodd"/><path d="M0.135823-5.15446 41.3715-4.06787 41.0999 6.24105-0.135823 5.15446ZM72.2983-3.25293 94.8178-2.65953 94.5462 7.64939 72.0266 7.05599ZM89.935-13.1043 120.454 3.17405 89.1201 17.8225Z" fill="#00B050" transform="matrix(-1 0 0 1 2645.45 2061)"/><path d="M2518 2147.84 2689.43 2147.84 2689.43 2212.92 2684.28 2207.77 2824.77 2207.77 2824.77 2218.08 2679.12 2218.08 2679.12 2153 2684.28 2158.16 2518 2158.16ZM2819.62 2197.45 2850.55 2212.92 2819.62 2228.39Z" fill="#00B050"/><path d="M3690.89 1633.52 3732.14 1633.52 3732.14 1643.84 3690.89 1643.84ZM3763.08 1633.52 3773.39 1633.52 3768.23 1638.68 3768.23 1607.74 3778.55 1607.74 3778.55 1643.84 3763.08 1643.84ZM3768.23 1576.81 3768.23 1535.56 3778.55 1535.56 3778.55 1576.81ZM3768.23 1504.62 3768.23 1463.37 3778.55 1463.37 3778.55 1504.62ZM3768.23 1432.43 3768.23 1391.18 3778.55 1391.18 3778.55 1432.43ZM3768.23 1360.24 3768.23 1318.99 3778.55 1318.99 3778.55 1360.24ZM3768.23 1288.06 3768.23 1246.81 3778.55 1246.81 3778.55 1288.06ZM3768.23 1215.87 3768.23 1174.62 3778.55 1174.62 3778.55 1215.87ZM3768.23 1143.68 3768.23 1112 3773.39 1117.16 3763.82 1117.16 3763.82 1106.84 3778.55 1106.84 3778.55 1143.68ZM3732.88 1117.16 3691.63 1117.16 3691.63 1106.84 3732.88 1106.84ZM3660.7 1117.16 3619.45 1117.16 3619.45 1106.84 3660.7 1106.84ZM3588.51 1117.16 3547.26 1117.16 3547.26 1106.84 3588.51 1106.84ZM3516.32 1117.16 3475.07 1117.16 3475.07 1106.84 3516.32 1106.84ZM3444.13 1117.16 3402.88 1117.16 3402.88 1106.84 3444.13 1106.84ZM3371.95 1117.16 3330.7 1117.16 3330.7 1106.84 3371.95 1106.84ZM3299.76 1117.16 3258.51 1117.16 3258.51 1106.84 3299.76 1106.84ZM3227.57 1117.16 3186.32 1117.16 3186.32 1106.84 3227.57 1106.84ZM3155.38 1117.16 3114.13 1117.16 3114.13 1106.84 3155.38 1106.84ZM3083.2 1117.16 3041.95 1117.16 3041.95 1106.84 3083.2 1106.84ZM3011.01 1117.16 2969.76 1117.16 2969.76 1106.84 3011.01 1106.84ZM2938.82 1117.16 2897.57 1117.16 2897.57 1106.84 2938.82 1106.84ZM2866.63 1117.16 2825.38 1117.16 2825.38 1106.84 2866.63 1106.84ZM2794.45 1117.16 2753.2 1117.16 2753.2 1106.84 2794.45 1106.84ZM2722.26 1117.16 2681.01 1117.16 2681.01 1106.84 2722.26 1106.84ZM2650.07 1117.16 2608.82 1117.16 2608.82 1106.84 2650.07 1106.84ZM2577.88 1117.16 2543.78 1117.16 2543.78 1106.84 2577.88 1106.84ZM2548.94 1127.47 2518 1112 2548.94 1096.53Z" fill="#FF0000"/><path d="M0 5.15625-41.25 5.15625-41.25-5.15625 0-5.15625ZM-72.1875 5.15625-82.5038 5.15625-77.3475 0-77.3475 30.9337-87.66 30.9337-87.66-5.15625-72.1875-5.15625ZM-77.3475 61.8712-77.3475 103.121-87.66 103.121-87.66 61.8712ZM-77.3475 134.059-77.3475 175.309-87.66 175.309-87.66 134.059ZM-77.3475 206.246-77.3475 247.496-87.66 247.496-87.66 206.246ZM-77.3475 278.434-77.3475 319.684-87.66 319.684-87.66 278.434ZM-77.3475 350.621-77.3475 391.871-87.66 391.871-87.66 350.621ZM-77.3475 422.809-77.3475 464.059-87.66 464.059-87.66 422.809ZM-77.3475 494.996-77.3475 536.246-87.66 536.246-87.66 494.996ZM-77.3475 567.184-77.3475 608.434-87.66 608.434-87.66 567.184ZM-77.3475 639.371-77.3475 680.621-87.66 680.621-87.66 639.371ZM-77.3475 711.559-77.3475 752.809-87.66 752.809-87.66 711.559ZM-77.3475 783.746-77.3475 824.996-87.66 824.996-87.66 783.746ZM-77.3475 855.934-77.3475 897.184-87.66 897.184-87.66 855.934ZM-75.2702 915.731-34.0202 915.731-34.0202 926.044-75.2702 926.044ZM-3.08273 915.731 38.1673 915.731 38.1673 926.044-3.08273 926.044ZM69.1048 915.731 110.355 915.731 110.355 926.044 69.1048 926.044ZM141.292 915.731 182.542 915.731 182.542 926.044 141.292 926.044ZM213.48 915.731 254.73 915.731 254.73 926.044 213.48 926.044ZM285.667 915.731 326.917 915.731 326.917 926.044 285.667 926.044ZM357.855 915.731 399.105 915.731 399.105 926.044 357.855 926.044ZM430.042 915.731 471.292 915.731 471.292 926.044 430.042 926.044ZM502.23 915.731 543.48 915.731 543.48 926.044 502.23 926.044ZM574.417 915.731 615.667 915.731 615.667 926.044 574.417 926.044ZM646.605 915.731 687.855 915.731 687.855 926.044 646.605 926.044ZM718.792 915.731 760.042 915.731 760.042 926.044 718.792 926.044ZM790.98 915.731 832.23 915.731 832.23 926.044 790.98 926.044ZM863.167 915.731 904.417 915.731 904.417 926.044 863.167 926.044ZM935.355 915.731 976.605 915.731 976.605 926.044 935.355 926.044ZM1007.54 915.731 1048.79 915.731 1048.79 926.044 1007.54 926.044ZM1079.73 915.731 1105.65 915.731 1105.65 926.044 1079.73 926.044ZM1100.49 905.419 1131.43 920.888 1100.49 936.356Z" fill="#FF0000" transform="matrix(-1 0 0 1 3690.43 2021)"/><path d="M0 0 254.809 1.02349" stroke="#000000" stroke-width="10.3125" stroke-miterlimit="8" fill="none" fill-rule="evenodd" transform="matrix(1 0 0 -1 1393 689.023)"/><path d="M2101 2445 2101 2522.95" stroke="#000000" stroke-width="10.3125" stroke-miterlimit="8" fill="none" fill-rule="evenodd"/><path d="M2098 3360 2098 3437.95" stroke="#000000" stroke-width="10.3125" stroke-miterlimit="8" fill="none" fill-rule="evenodd"/><path d="M0 0 0.28727 94.2896" stroke="#000000" stroke-width="10.3125" stroke-miterlimit="8" fill="none" fill-rule="evenodd" transform="matrix(-1 0 0 1 2099.29 4366)"/><rect x="2724.5" y="3303.5" width="1133" height="1607" stroke="#000000" stroke-width="4.58333" stroke-miterlimit="8" fill="none"/><path d="M2777 3512.84 2818.25 3512.84 2818.25 3523.16 2777 3523.16ZM2849.19 3512.84 2890.44 3512.84 2890.44 3523.16 2849.19 3523.16ZM2921.38 3512.84 2946.1 3512.84 2946.1 3523.16 2921.38 3523.16ZM2940.94 3502.53 2971.88 3518 2940.94 3533.47Z"/><text font-family="Arial,Arial_MSFontService,sans-serif" font-weight="400" font-size="50" transform="matrix(1 0 0 1 3025.71 3536)">Input</text><path d="M2777 3622.84 2946.1 3622.84 2946.1 3633.16 2777 3633.16ZM2940.94 3612.53 2971.88 3628 2940.94 3643.47Z"/><text font-family="Arial,Arial_MSFontService,sans-serif" font-weight="400" font-size="50" transform="matrix(1 0 0 1 3025.71 3646)">Output</text><path d="M2777 3739.84 2818.25 3739.84 2818.25 3750.16 2777 3750.16ZM2849.19 3739.84 2890.44 3739.84 2890.44 3750.16 2849.19 3750.16ZM2921.38 3739.84 2946.1 3739.84 2946.1 3750.16 2921.38 3750.16ZM2940.94 3729.53 2971.88 3745 2940.94 3760.47Z" fill="#7F7F7F"/><text font-family="Arial,Arial_MSFontService,sans-serif" font-weight="400" font-size="50" transform="matrix(1 0 0 1 3025.71 3764)">Optional parameters input to <tspan font-size="50" x="0" y="61">select ED</tspan><tspan font-size="50" x="215.99" y="61">-</tspan><tspan font-size="50" x="232.604" y="61">induced pathways</tspan></text><path d="M2777 4158.84 2946.1 4158.84 2946.1 4169.16 2777 4169.16ZM2940.94 4148.53 2971.88 4164 2940.94 4179.47Z" fill="#FF0000"/><path d="M2777 4125.84 2818.25 4125.84 2818.25 4136.16 2777 4136.16ZM2849.19 4125.84 2890.44 4125.84 2890.44 4136.16 2849.19 4136.16ZM2921.38 4125.84 2946.1 4125.84 2946.1 4136.16 2921.38 4136.16ZM2940.94 4115.53 2971.88 4131 2940.94 4146.47Z" fill="#FF0000"/><text font-family="Arial,Arial_MSFontService,sans-serif" font-weight="400" font-size="50" transform="matrix(1 0 0 1 3025.71 4105)">Pipeline<tspan font-size="50" x="201.804" y="0">for</tspan><tspan font-size="50" x="281.577" y="0">training</tspan><tspan font-size="50" x="468.485" y="0">new</tspan><tspan font-size="50" x="582.656" y="0">classifier</tspan><tspan font-size="50" x="0" y="61">from</tspan><tspan font-size="50" x="149.921" y="61">toxicogenomics</tspan><tspan font-size="50" x="547.342" y="61">data</tspan><tspan font-size="50" x="694.948" y="61">and</tspan><tspan font-size="50" x="0" y="121">identification</tspan><tspan font-size="50" x="294.479" y="121">of</tspan><tspan font-size="50" x="350.052" y="121">MoA</tspan><tspan font-size="50" x="467.5" y="121">of</tspan><tspan font-size="50" x="523.073" y="121">EDCs</tspan></text><path d="M2777 4419.84 2946.1 4419.84 2946.1 4430.16 2777 4430.16ZM2940.94 4409.53 2971.88 4425 2940.94 4440.47Z" fill="#00B050"/><path d="M2777 4386.84 2818.25 4386.84 2818.25 4397.16 2777 4397.16ZM2849.19 4386.84 2890.44 4386.84 2890.44 4397.16 2849.19 4397.16ZM2921.38 4386.84 2946.1 4386.84 2946.1 4397.16 2921.38 4397.16ZM2940.94 4376.53 2971.88 4392 2940.94 4407.47Z" fill="#00B050"/><text font-family="Arial,Arial_MSFontService,sans-serif" font-weight="400" font-size="50" transform="matrix(1 0 0 1 3025.71 4366)">Pipeline<tspan font-size="50" x="209.688" y="0">for</tspan><tspan font-size="50" x="297.344" y="0">compiling</tspan><tspan font-size="50" x="540.26" y="0">EDC</tspan><tspan font-size="50" x="647.396" y="0">-</tspan><tspan font-size="50" x="664.01" y="0">class</tspan><tspan font-size="50" x="0" y="61">probability</tspan><tspan font-size="50" x="258.821" y="61">scores</tspan><tspan font-size="50" x="435.715" y="61">based</tspan><tspan font-size="50" x="601.723" y="61">on</tspan><tspan font-size="50" x="686.354" y="61">new</tspan><tspan font-size="50" x="0" y="121">classifiers</tspan></text><path d="M2777 4712.84 2946.1 4712.84 2946.1 4723.16 2777 4723.16ZM2940.94 4702.53 2971.88 4718 2940.94 4733.47Z" fill="#0070C0"/><path d="M2777 4680.84 2818.25 4680.84 2818.25 4691.16 2777 4691.16ZM2849.19 4680.84 2890.44 4680.84 2890.44 4691.16 2849.19 4691.16ZM2921.38 4680.84 2946.1 4680.84 2946.1 4691.16 2921.38 4691.16ZM2940.94 4670.53 2971.88 4686 2940.94 4701.47Z" fill="#0070C0"/><text font-family="Arial,Arial_MSFontService,sans-serif" font-weight="400" font-size="50" transform="matrix(1 0 0 1 3025.71 4598)">Pipeline<tspan font-size="50" x="211.796" y="0">for</tspan><tspan font-size="50" x="301.56" y="0">retrieving</tspan><tspan font-size="50" x="540.26" y="0">EDC</tspan><tspan font-size="50" x="647.396" y="0">-</tspan><tspan font-size="50" x="664.01" y="0">class</tspan><tspan font-size="50" x="0" y="61">probability</tspan><tspan font-size="50" x="309.581" y="61">scores</tspan><tspan font-size="50" x="537.212" y="61">for</tspan><tspan font-size="50" x="674.896" y="61">CTD</tspan><tspan font-size="50" x="0" y="121">compounds</tspan><tspan font-size="50" x="297.917" y="121">or</tspan><tspan font-size="50" x="379.844" y="121">compiling</tspan><tspan font-size="50" x="630.781" y="121">scores</tspan><tspan font-size="50" x="0" y="182">for</tspan><tspan font-size="50" x="75.2813" y="182">new</tspan><tspan font-size="50" x="184.938" y="182">compounds</tspan><tspan font-size="50" x="462.458" y="182">based</tspan><tspan font-size="50" x="616.802" y="182">on</tspan><tspan font-size="50" x="689.792" y="182">pre</tspan><tspan font-size="50" x="762.552" y="182">-</tspan><tspan font-size="50" x="0" y="242">trained</tspan><tspan font-size="50" x="167.865" y="242">classifiers</tspan><tspan font-weight="700" font-size="55" x="158.279" y="-1214">Legends</tspan></text><rect x="1682.5" y="2234.5" width="840" height="106" stroke="#2F528F" stroke-width="4.58333" stroke-miterlimit="8" fill="#D9D9D9"/><text font-family="Arial,Arial_MSFontService,sans-serif" font-weight="700" font-size="55" transform="matrix(1 0 0 1 1728.87 2308)">Uses: <tspan font-weight="400" font-size="55" x="164.427" y="0">Add a new ED</tspan><tspan font-weight="400" font-size="55" x="515.052" y="0">-</tspan><tspan font-weight="400" font-size="55" x="533.385" y="0">classifier</tspan></text><path d="M2777 3902.84 2818.25 3902.84 2818.25 3913.16 2777 3913.16ZM2849.19 3902.84 2890.44 3902.84 2890.44 3913.16 2849.19 3913.16ZM2921.38 3902.84 2946.1 3902.84 2946.1 3913.16 2921.38 3913.16ZM2940.94 3892.53 2971.88 3908 2940.94 3923.47Z" fill="#7030A0"/><text font-family="Arial,Arial_MSFontService,sans-serif" font-weight="400" font-size="50" transform="matrix(1 0 0 1 3025.71 3926)">Optional parameters input to <tspan font-size="50" x="0" y="61">compare classification models</tspan></text></g></svg>