<svg width="3561" height="5241" xmlns="http://www.w3.org/2000/svg" xmlns:xlink="http://www.w3.org/1999/xlink" overflow="hidden"><defs><clipPath id="clip0"><rect x="567" y="421" width="3561" height="5241"/></clipPath></defs><g clip-path="url(#clip0)" transform="translate(-567 -421)"><path d="M658.5 740.501C658.5 704.602 687.602 675.5 723.501 675.5L1502.5 675.5C1538.4 675.5 1567.5 704.602 1567.5 740.501L1567.5 1000.5C1567.5 1036.4 1538.4 1065.5 1502.5 1065.5L723.501 1065.5C687.602 1065.5 658.5 1036.4 658.5 1000.5Z" stroke="#000000" stroke-width="6.875" stroke-miterlimit="8" fill="none" fill-rule="evenodd"/><text font-family="Arial,Arial_MSFontService,sans-serif" font-weight="700" font-size="64" transform="matrix(1 0 0 1 1022.94 756)">Home<tspan font-weight="400" font-size="55" x="-313.66" y="68">•</tspan><tspan font-weight="400" font-size="55" x="-282.035" y="68">Landing page</tspan><tspan font-weight="400" font-size="55" x="-313.66" y="134">•</tspan><tspan font-weight="400" font-size="55" x="-282.035" y="134">Introduction to EDTox</tspan><tspan font-weight="400" font-size="55" x="-313.66" y="200">•</tspan><tspan font-weight="400" font-size="55" x="-282.035" y="200">Data used</tspan><tspan font-weight="400" font-size="55" x="-313.66" y="266">•</tspan><tspan font-weight="400" font-size="55" x="-282.035" y="266">Case study with de</tspan><tspan font-weight="400" font-size="55" x="181.454" y="266">-</tspan><tspan font-weight="400" font-size="55" x="199.788" y="266">novo data</tspan></text><path d="M1823.5 635.17C1823.5 551.405 1891.4 483.5 1975.17 483.5L2581.83 483.5C2665.6 483.5 2733.5 551.405 2733.5 635.17L2733.5 1245.83C2733.5 1329.6 2665.6 1397.5 2581.83 1397.5L1975.17 1397.5C1891.4 1397.5 1823.5 1329.6 1823.5 1245.83Z" stroke="#000000" stroke-width="6.875" stroke-miterlimit="8" fill="none" fill-rule="evenodd"/><text font-family="Arial,Arial_MSFontService,sans-serif" font-weight="700" font-size="64" transform="matrix(1 0 0 1 2131.69 589)">Summary</text><rect x="1859.5" y="643.5" width="841" height="167" stroke="#2F528F" stroke-width="4.58333" stroke-miterlimit="8" fill="none"/><text font-family="Arial,Arial_MSFontService,sans-serif" font-weight="400" font-size="55" transform="matrix(1 0 0 1 1927.02 705)">Distribution of EDC scores of <tspan font-size="55" x="166.421" y="66">CTD chemicals</tspan></text><rect x="1853.5" y="847.5" width="840" height="190" stroke="#2F528F" stroke-width="4.58333" stroke-miterlimit="8" fill="none"/><text font-family="Arial,Arial_MSFontService,sans-serif" font-weight="400" font-size="55" transform="matrix(1 0 0 1 1893.16 921)">Bar plot of number of pathways <tspan font-size="55" x="110.848" y="66">included in application</tspan></text><rect x="1852.5" y="1074.5" width="841" height="245" stroke="#000000" stroke-width="4.58333" stroke-miterlimit="8" fill="none"/><text font-family="Arial,Arial_MSFontService,sans-serif" font-weight="400" font-size="55" transform="matrix(1 0 0 1 1901.62 1142)">The accuracy of ED-<tspan font-size="55" x="500.729" y="0">classifiers </tspan><tspan font-size="55" x="20.052" y="66">trained for different exposure </tspan><tspan font-size="55" x="245.781" y="132">scenarios. </tspan></text><path d="M1795.5 1696C1795.5 1608.46 1866.46 1537.5 1954 1537.5L2588 1537.5C2675.54 1537.5 2746.5 1608.46 2746.5 1696L2746.5 2468C2746.5 2555.54 2675.54 2626.5 2588 2626.5L1954 2626.5C1866.46 2626.5 1795.5 2555.54 1795.5 2468Z" stroke="#000000" stroke-width="6.875" stroke-miterlimit="8" fill="none" fill-rule="evenodd"/><text font-family="Arial,Arial_MSFontService,sans-serif" font-weight="700" font-size="64" transform="matrix(1 0 0 1 1887.26 1645)">Toxicogenomics Pipeline</text><rect x="1853.5" y="1734.5" width="841" height="179" stroke="#2F528F" stroke-width="4.58333" stroke-miterlimit="8" fill="none"/><text font-family="Arial,Arial_MSFontService,sans-serif" font-weight="400" font-size="55" transform="matrix(1 0 0 1 1981.13 1802)">Add and optimize a new <tspan font-size="55" x="-80.4834" y="66">toxicogenomic</tspan><tspan font-size="55" x="269.569" y="66">-</tspan><tspan font-size="55" x="287.902" y="66">based gene net</tspan></text><rect x="1854.5" y="1958.5" width="840" height="179" stroke="#2F528F" stroke-width="4.58333" stroke-miterlimit="8" fill="none"/><text font-family="Arial,Arial_MSFontService,sans-serif" font-weight="400" font-size="55" transform="matrix(1 0 0 1 1905.23 2026)">Training new ED-<tspan font-size="55" x="423.386" y="0">classifiers by </tspan><tspan font-size="55" x="5.72925" y="66">using the gene nets and MIEs</tspan></text><rect x="1855.5" y="2189.5" width="841" height="158" stroke="#2F528F" stroke-width="4.58333" stroke-miterlimit="8" fill="none"/><text font-family="Arial,Arial_MSFontService,sans-serif" font-weight="400" font-size="55" transform="matrix(1 0 0 1 1932.71 2247)">Prediction on new ‘untested’ <tspan font-size="55" x="201.094" y="66">compounds </tspan></text><path d="M2991.5 1696.5C2991.5 1612.55 3059.55 1544.5 3143.5 1544.5L3751.5 1544.5C3835.45 1544.5 3903.5 1612.55 3903.5 1696.5L3903.5 2409.5C3903.5 2493.45 3835.45 2561.5 3751.5 2561.5L3143.5 2561.5C3059.55 2561.5 2991.5 2493.45 2991.5 2409.5Z" stroke="#000000" stroke-width="6.875" stroke-miterlimit="8" fill="none" fill-rule="evenodd"/><text font-family="Arial,Arial_MSFontService,sans-serif" font-style="italic" font-weight="400" font-size="64" transform="matrix(1 0 0 1 3350.79 1651)">Output</text><rect x="3025.5" y="1744.5" width="841" height="152" stroke="#2F528F" stroke-width="4.58333" stroke-miterlimit="8" fill="none"/><text font-family="Arial,Arial_MSFontService,sans-serif" font-weight="400" font-size="55" transform="matrix(1 0 0 1 3324.59 1832)">F1 scores</text><rect x="3025.5" y="1935.5" width="841" height="152" stroke="#2F528F" stroke-width="4.58333" stroke-miterlimit="8" fill="none"/><text font-family="Arial,Arial_MSFontService,sans-serif" font-weight="400" font-size="55" transform="matrix(1 0 0 1 3224.33 2023)">Model parameters</text><rect x="3025.5" y="2126.5" width="841" height="153" stroke="#4472C4" stroke-width="4.58333" stroke-miterlimit="8" fill="none"/><text font-family="Arial,Arial_MSFontService,sans-serif" font-weight="400" font-size="55" transform="matrix(1 0 0 1 3128.08 2214)">Pathway activation scores</text><rect x="3025.5" y="2317.5" width="841" height="153" stroke="#2F528F" stroke-width="4.58333" stroke-miterlimit="8" fill="none"/><text font-family="Arial,Arial_MSFontService,sans-serif" font-weight="400" font-size="55" transform="matrix(1 0 0 1 3058.47 2405)">Predicted ED<tspan font-size="55" x="323.125" y="0">-</tspan><tspan font-size="55" x="341.458" y="0">class probabilities</tspan></text><path d="M1822.5 2845.67C1822.5 2768.81 1884.81 2706.5 1961.67 2706.5L2595.33 2706.5C2672.19 2706.5 2734.5 2768.81 2734.5 2845.67L2734.5 3402.33C2734.5 3479.19 2672.19 3541.5 2595.33 3541.5L1961.67 3541.5C1884.81 3541.5 1822.5 3479.19 1822.5 3402.33Z" stroke="#000000" stroke-width="6.875" stroke-miterlimit="8" fill="none" fill-rule="evenodd"/><text font-family="Arial,Arial_MSFontService,sans-serif" font-weight="700" font-size="64" transform="matrix(1 0 0 1 1990.47 2808)">Pathway activation <tspan font-size="64" x="184.479" y="77">scores</tspan></text><rect x="1853.5" y="2955.5" width="841" height="279" stroke="#2F528F" stroke-width="4.58333" stroke-miterlimit="8" fill="none"/><text font-family="Arial,Arial_MSFontService,sans-serif" font-weight="400" font-size="55" transform="matrix(1 0 0 1 1892.63 3049)">Select pathways based on their <tspan font-size="55" x="73.0354" y="66">average scores and GLM </tspan><tspan font-size="55" x="243.765" y="132">coefficients</tspan></text><rect x="1854.5" y="3271.5" width="840" height="161" stroke="#2F528F" stroke-width="4.58333" stroke-miterlimit="8" fill="#D9D9D9"/><text font-family="Arial,Arial_MSFontService,sans-serif" font-weight="700" font-size="55" transform="matrix(1 0 0 1 1903.52 3339)">Uses: <tspan font-weight="400" font-size="55" x="164.427" y="0">Identification of putative </tspan><tspan font-weight="400" font-size="55" x="80.5062" y="66">mode of action of EDCs</tspan></text><path d="M1829.5 3772.5C1829.5 3688.55 1897.55 3620.5 1981.5 3620.5L2589.5 3620.5C2673.45 3620.5 2741.5 3688.55 2741.5 3772.5L2741.5 4398.5C2741.5 4482.45 2673.45 4550.5 2589.5 4550.5L1981.5 4550.5C1897.55 4550.5 1829.5 4482.45 1829.5 4398.5Z" stroke="#000000" stroke-width="6.875" stroke-miterlimit="8" fill="none" fill-rule="evenodd"/><text font-family="Arial,Arial_MSFontService,sans-serif" font-weight="700" font-size="64" transform="matrix(1 0 0 1 1954.86 3726)">EDC<tspan font-size="64" x="135.781" y="0">-</tspan><tspan font-size="64" x="156.979" y="0">class probability</tspan></text><rect x="1861.5" y="3791.5" width="841" height="161" stroke="#2F528F" stroke-width="4.58333" stroke-miterlimit="8" fill="none"/><text font-family="Arial,Arial_MSFontService,sans-serif" font-weight="400" font-size="55" transform="matrix(1 0 0 1 1915.45 3858)">Average and harmonic sum of <tspan font-size="55" x="15.4688" y="66">EDC</tspan><tspan font-size="55" x="131.198" y="66">-</tspan><tspan font-size="55" x="149.531" y="66">class probability scores</tspan></text><rect x="1861.5" y="3998.5" width="841" height="161" stroke="#2F528F" stroke-width="4.58333" stroke-miterlimit="8" fill="none"/><text font-family="Arial,Arial_MSFontService,sans-serif" font-weight="400" font-size="55" transform="matrix(1 0 0 1 1930.64 4065)">Plot of compound EDC<tspan font-size="55" x="558.021" y="0">-</tspan><tspan font-size="55" x="576.354" y="0">class </tspan><tspan font-size="55" x="137.5" y="66">probability scores</tspan></text><rect x="1859.5" y="4204.5" width="841" height="271" stroke="#2F528F" stroke-width="4.58333" stroke-miterlimit="8" fill="#D9D9D9"/><text font-family="Arial,Arial_MSFontService,sans-serif" font-weight="700" font-size="55" transform="matrix(1 0 0 1 1898.38 4260)">Uses: <tspan font-weight="400" font-size="55" x="164.427" y="0">Comparison of the EDC</tspan><tspan font-weight="400" font-size="55" x="743.646" y="0">-</tspan><tspan font-weight="400" font-size="55" x="34.077" y="66">class probabilities generated </tspan><tspan font-weight="400" font-size="55" x="83.9208" y="132">within different exposure </tspan><tspan font-weight="400" font-size="55" x="263.817" y="198">scenarios</tspan></text><path d="M1818.5 4793.5C1818.5 4709.55 1886.55 4641.5 1970.5 4641.5L2578.5 4641.5C2662.45 4641.5 2730.5 4709.55 2730.5 4793.5L2730.5 5461.5C2730.5 5545.45 2662.45 5613.5 2578.5 5613.5L1970.5 5613.5C1886.55 5613.5 1818.5 5545.45 1818.5 5461.5Z" stroke="#000000" stroke-width="6.875" stroke-miterlimit="8" fill="none" fill-rule="evenodd"/><text font-family="Arial,Arial_MSFontService,sans-serif" font-weight="700" font-size="64" transform="matrix(1 0 0 1 1918.12 4748)">Comparison with ToxPi <tspan font-size="64" x="248.646" y="77">Scores </tspan></text><rect x="1849.5" y="4863.5" width="841" height="228" stroke="#2F528F" stroke-width="4.58333" stroke-miterlimit="8" fill="none"/><text font-family="Arial,Arial_MSFontService,sans-serif" font-weight="400" font-size="55" transform="matrix(1 0 0 1 1918.25 4923)">Scatter plot of average EDC<tspan font-size="55" x="683.49" y="0">-</tspan><tspan font-size="55" x="14.3229" y="66">class probability scores and </tspan><tspan font-size="55" x="192.225" y="132">ToxPi scores</tspan></text><rect x="1849.5" y="5132.5" width="841" height="161" stroke="#2F528F" stroke-width="4.58333" stroke-miterlimit="8" fill="none"/><text font-family="Arial,Arial_MSFontService,sans-serif" font-weight="400" font-size="55" transform="matrix(1 0 0 1 1948.05 5225)">Table of compound details</text><rect x="1855.5" y="5333.5" width="840" height="204" stroke="#2F528F" stroke-width="4.58333" stroke-miterlimit="8" fill="#D9D9D9"/><text font-family="Arial,Arial_MSFontService,sans-serif" font-weight="700" font-size="55" transform="matrix(1 0 0 1 1948.95 5381)">Uses: <tspan font-weight="400" font-size="55" x="164.427" y="0">Comparison of EDC </tspan><tspan font-weight="400" font-size="55" x="-22.9166" y="66">potential identified by EDTox </tspan><tspan font-weight="400" font-size="55" x="170.431" y="132">and ToxCast</tspan></text><path d="M653.5 1694.5C653.5 1610.55 721.554 1542.5 805.503 1542.5L1413.5 1542.5C1497.45 1542.5 1565.5 1610.55 1565.5 1694.5L1565.5 3168.5C1565.5 3252.45 1497.45 3320.5 1413.5 3320.5L805.503 3320.5C721.554 3320.5 653.5 3252.45 653.5 3168.5Z" stroke="#000000" stroke-width="6.875" stroke-miterlimit="8" fill="none" fill-rule="evenodd"/><text font-family="Arial,Arial_MSFontService,sans-serif" font-style="italic" font-weight="400" font-size="64" transform="matrix(1 0 0 1 1038.35 1648)">Input</text><rect x="686.5" y="1726.5" width="841" height="195" stroke="#2F528F" stroke-width="4.58333" stroke-miterlimit="8" fill="none"/><text font-family="Arial,Arial_MSFontService,sans-serif" font-weight="400" font-size="55" transform="matrix(1 0 0 1 740.626 1802)">Weighted undirected gene co<tspan font-size="55" x="712.708" y="0">-</tspan><tspan font-size="55" x="129.479" y="66">expression network</tspan></text><rect x="686.5" y="1985.5" width="841" height="195" stroke="#2F528F" stroke-width="4.58333" stroke-miterlimit="8" fill="none"/><text font-family="Arial,Arial_MSFontService,sans-serif" font-weight="400" font-size="55" transform="matrix(1 0 0 1 752.084 2094)">List of EDCs along with MIEs</text><rect x="686.5" y="2244.5" width="841" height="195" stroke="#2F528F" stroke-width="4.58333" stroke-miterlimit="8" fill="none"/><text font-family="Arial,Arial_MSFontService,sans-serif" font-weight="400" font-size="55" transform="matrix(1 0 0 1 736.902 2353)">List of decoys along with MIEs</text><rect x="686.5" y="2503.5" width="841" height="195" stroke="#2F528F" stroke-width="4.58333" stroke-miterlimit="8" fill="none"/><text font-family="Arial,Arial_MSFontService,sans-serif" font-weight="400" font-size="55" transform="matrix(1 0 0 1 766.407 2579)">List of unknown compounds <tspan font-size="55" x="146.094" y="66">along with MIEs</tspan></text><rect x="686.5" y="2762.5" width="841" height="195" stroke="#2F528F" stroke-width="4.58333" stroke-miterlimit="8" fill="none"/><text font-family="Arial,Arial_MSFontService,sans-serif" font-weight="400" font-size="55" transform="matrix(1 0 0 1 746.355 2872)">Names of compounds in CTD</text><rect x="686.5" y="3021.5" width="841" height="195" stroke="#2F528F" stroke-width="4.58333" stroke-miterlimit="8" fill="none"/><text font-family="Arial,Arial_MSFontService,sans-serif" font-weight="400" font-size="55" transform="matrix(1 0 0 1 755.808 3098)">Name of new compound and <tspan font-size="55" x="215.715" y="66">list of MIEs</tspan></text><path d="M656.5 3772.67C656.5 3688.63 724.629 3620.5 808.67 3620.5L1417.33 3620.5C1501.37 3620.5 1569.5 3688.63 1569.5 3772.67L1569.5 5139.33C1569.5 5223.37 1501.37 5291.5 1417.33 5291.5L808.67 5291.5C724.629 5291.5 656.5 5223.37 656.5 5139.33Z" stroke="#000000" stroke-width="6.875" stroke-miterlimit="8" fill="none" fill-rule="evenodd"/><text font-family="Arial,Arial_MSFontService,sans-serif" font-style="italic" font-weight="400" font-size="64" transform="matrix(1 0 0 1 822.889 3726)">Optional parameters</text><rect x="707.5" y="3801.5" width="806" height="156" stroke="#2F528F" stroke-width="4.58333" stroke-miterlimit="8" fill="none"/><text font-family="Arial,Arial_MSFontService,sans-serif" font-weight="400" font-size="55" transform="matrix(1 0 0 1 793.047 3891)">GLM Coefficient threshold</text><rect x="707.5" y="4011.5" width="806" height="156" stroke="#2F528F" stroke-width="4.58333" stroke-miterlimit="8" fill="none"/><text font-family="Arial,Arial_MSFontService,sans-serif" font-weight="400" font-size="55" transform="matrix(1 0 0 1 806.797 4101)">Pathway activation score</text><rect x="707.5" y="4221.5" width="806" height="156" stroke="#2F528F" stroke-width="4.58333" stroke-miterlimit="8" fill="none"/><text font-family="Arial,Arial_MSFontService,sans-serif" font-weight="400" font-size="55" transform="matrix(1 0 0 1 870.964 4311)">Pathway databases</text><rect x="707.5" y="4431.5" width="806" height="156" stroke="#2F528F" stroke-width="4.58333" stroke-miterlimit="8" fill="none"/><text font-family="Arial,Arial_MSFontService,sans-serif" font-weight="400" font-size="55" transform="matrix(1 0 0 1 983.828 4521)">Classifiers</text><rect x="707.5" y="4641.5" width="806" height="156" stroke="#2F528F" stroke-width="4.58333" stroke-miterlimit="8" fill="none"/><text font-family="Arial,Arial_MSFontService,sans-serif" font-weight="400" font-size="55" transform="matrix(1 0 0 1 846.328 4731)">Minimum ToxPi score</text><rect x="707.5" y="4851.5" width="806" height="156" stroke="#2F528F" stroke-width="4.58333" stroke-miterlimit="8" fill="none"/><text font-family="Arial,Arial_MSFontService,sans-serif" font-weight="400" font-size="55" transform="matrix(1 0 0 1 861.797 4908)">Minimum EDC<tspan font-size="55" x="353.49" y="0">-</tspan><tspan font-size="55" x="371.823" y="0">class </tspan><tspan font-size="55" x="48.9959" y="66">probability score</tspan></text><rect x="707.5" y="5061.5" width="806" height="156" stroke="#2F528F" stroke-width="4.58333" stroke-miterlimit="8" fill="none"/><text font-family="Arial,Arial_MSFontService,sans-serif" font-weight="400" font-size="55" transform="matrix(1 0 0 1 884.714 5151)">Plot click precision</text><path d="M1668 1822 1668 2341.69" stroke="#FF0000" stroke-width="10.3125" stroke-miterlimit="8" stroke-dasharray="41.25 30.9375" fill="none" fill-rule="evenodd"/><path d="M0 0 142.746 1.0105" stroke="#FF0000" stroke-width="10.3125" stroke-miterlimit="8" stroke-dasharray="41.25 30.9375" fill="none" fill-rule="evenodd" transform="matrix(1 0 0 -1 1527 1823.01)"/><path d="M0 0 142.746 1.0105" stroke="#FF0000" stroke-width="10.3125" stroke-miterlimit="8" stroke-dasharray="41.25 30.9375" fill="none" fill-rule="evenodd" transform="matrix(1 0 0 -1 1524 2084.01)"/><path d="M0 0 142.746 1.0105" stroke="#FF0000" stroke-width="10.3125" stroke-miterlimit="8" stroke-dasharray="41.25 30.9375" fill="none" fill-rule="evenodd" transform="matrix(1 0 0 -1 1524 2343.01)"/><path d="M0.0278693-5.15617 41.2773-4.93322 41.2215 5.37913-0.0278693 5.15617ZM72.2143-4.766 113.464-4.54305 113.408 5.7693 72.1586 5.54635ZM144.401-4.37583 161.135-4.28538 161.079 6.02697 144.345 5.93652ZM156.035-14.6256 186.888 1.01014 155.867 16.3114Z" fill="#FF0000" transform="matrix(1 0 0 -1 1667 2053.01)"/><path d="M0-5.15625 41.25-5.15625 41.25 5.15625 0 5.15625ZM72.1875-5.15625 113.438-5.15625 113.438 5.15625 72.1875 5.15625ZM144.375-5.15625 169.385-5.15625 169.385 21.3962 159.073 21.3962 159.073 0 164.229 5.15625 144.375 5.15625ZM169.385 52.3337 169.385 93.5837 159.073 93.5837 159.073 52.3337ZM169.385 124.521 169.385 165.771 159.073 165.771 159.073 124.521ZM169.385 196.709 169.385 237.959 159.073 237.959 159.073 196.709ZM169.385 268.896 169.385 310.146 159.073 310.146 159.073 268.896ZM172.632 327.524 213.882 327.524 213.882 337.837 172.632 337.837ZM244.819 327.524 286.069 327.524 286.069 337.837 244.819 337.837ZM297.52 317.212 328.458 332.681 297.52 348.149Z" fill="#00B050" transform="matrix(1 0 0 -1 1527 2600.68)"/><path d="M1693 2859 1693 4145.22" stroke="#0070C0" stroke-width="10.3125" stroke-miterlimit="8" stroke-dasharray="41.25 30.9375" fill="none" fill-rule="evenodd"/><path d="M1527 2860 1693.27 2860" stroke="#0070C0" stroke-width="10.3125" stroke-miterlimit="8" stroke-dasharray="41.25 30.9375" fill="none" fill-rule="evenodd"/><path d="M1524 3123 1690.27 3123" stroke="#0070C0" stroke-width="10.3125" stroke-miterlimit="8" stroke-dasharray="41.25 30.9375" fill="none" fill-rule="evenodd"/><path d="M1691 4139.84 1732.25 4139.84 1732.25 4150.16 1691 4150.16ZM1763.19 4139.84 1804.44 4139.84 1804.44 4150.16 1763.19 4150.16ZM1802.98 4129.53 1833.91 4145 1802.98 4160.47Z" fill="#0070C0"/><path d="M0 0 0.000360892 1097.71" stroke="#7F7F7F" stroke-width="10.3125" stroke-miterlimit="8" stroke-dasharray="41.25 30.9375" fill="none" fill-rule="evenodd" transform="matrix(-1 0 0 1 1608 3366)"/><path d="M1513 3879 1607.84 3879" stroke="#7F7F7F" stroke-width="10.3125" stroke-miterlimit="8" stroke-dasharray="41.25 30.9375" fill="none" fill-rule="evenodd"/><path d="M1514 4092 1608.84 4092" stroke="#7F7F7F" stroke-width="10.3125" stroke-miterlimit="8" stroke-dasharray="41.25 30.9375" fill="none" fill-rule="evenodd"/><path d="M1513 4299 1607.84 4299" stroke="#7F7F7F" stroke-width="10.3125" stroke-miterlimit="8" stroke-dasharray="41.25 30.9375" fill="none" fill-rule="evenodd"/><path d="M1511 4463 1605.84 4463" stroke="#7F7F7F" stroke-width="10.3125" stroke-miterlimit="8" stroke-dasharray="41.25 30.9375" fill="none" fill-rule="evenodd"/><path d="M1609 3360.84 1650.25 3360.84 1650.25 3371.16 1609 3371.16ZM1681.19 3360.84 1722.44 3360.84 1722.44 3371.16 1681.19 3371.16ZM1753.38 3360.84 1794.63 3360.84 1794.63 3371.16 1753.38 3371.16ZM1790.78 3350.53 1821.72 3366 1790.78 3381.47Z" fill="#7F7F7F"/><path d="M0-5.15625 41.25-5.15625 41.25 5.15625 0 5.15625ZM72.1875-5.15625 113.438-5.15625 113.438 5.15625 72.1875 5.15625ZM144.375-5.15625 165.508-5.15625 165.508 25.2735 155.195 25.2735 155.195 0 160.352 5.15625 144.375 5.15625ZM165.508 56.211 165.508 97.461 155.195 97.461 155.195 56.211ZM165.508 128.398 165.508 169.648 155.195 169.648 155.195 128.398ZM165.508 200.586 165.508 210.612 160.352 205.456 191.575 205.456 191.575 215.769 155.195 215.769 155.195 200.586ZM222.513 205.456 263.763 205.456 263.763 215.769 222.513 215.769ZM294.7 205.456 294.922 205.456 294.922 215.769 294.7 215.769ZM289.766 195.144 320.703 210.612 289.766 226.081Z" fill="#7030A0" transform="matrix(1 0 0 -1 1513 4509.61)"/><path d="M1610 4556 1610 5186.12" stroke="#7030A0" stroke-width="10.3125" stroke-miterlimit="8" stroke-dasharray="41.25 30.9375" fill="none" fill-rule="evenodd"/><path d="M1511 4560 1608.85 4560" stroke="#7030A0" stroke-width="10.3125" stroke-miterlimit="8" stroke-dasharray="41.25 30.9375" fill="none" fill-rule="evenodd"/><path d="M1514 4725 1611.85 4725" stroke="#7030A0" stroke-width="10.3125" stroke-miterlimit="8" stroke-dasharray="41.25 30.9375" fill="none" fill-rule="evenodd"/><path d="M1512 4932 1609.85 4932" stroke="#7030A0" stroke-width="10.3125" stroke-miterlimit="8" stroke-dasharray="41.25 30.9375" fill="none" fill-rule="evenodd"/><path d="M1512 5150 1609.85 5150" stroke="#7030A0" stroke-width="10.3125" stroke-miterlimit="8" stroke-dasharray="41.25 30.9375" fill="none" fill-rule="evenodd"/><path d="M1611.13 5175.85 1652.37 5176.91 1652.1 5187.22 1610.87 5186.15ZM1683.3 5177.7 1724.53 5178.76 1724.27 5189.07 1683.03 5188.01ZM1755.46 5179.56 1769.51 5179.92 1769.25 5190.23 1755.19 5189.87ZM1764.62 5169.48 1795.15 5185.74 1763.83 5200.4Z" fill="#7030A0"/><path d="M0 0 2.5959 392.462" stroke="#FF0000" stroke-width="10.3125" stroke-miterlimit="8" fill="none" fill-rule="evenodd" transform="matrix(-1 0 0 1 2894.6 1814)"/><path d="M2894 1814.84 2998.68 1814.84 2998.68 1825.16 2894 1825.16ZM2993.52 1804.53 3024.46 1820 2993.52 1835.47Z" fill="#FF0000"/><path d="M2894 2012.84 2998.68 2012.84 2998.68 2023.16 2894 2023.16ZM2993.52 2002.53 3024.46 2018 2993.52 2033.47Z" fill="#FF0000"/><path d="M2894 2196.84 2998.68 2196.84 2998.68 2207.16 2894 2207.16ZM2993.52 2186.53 3024.46 2202 2993.52 2217.47Z" fill="#FF0000"/><path d="M2700 2022 2892.06 2022" stroke="#FF0000" stroke-width="10.3125" stroke-miterlimit="8" fill="none" fill-rule="evenodd"/><path d="M2820 1988 2820 2262.35" stroke="#00B050" stroke-width="10.3125" stroke-miterlimit="8" stroke-dasharray="41.25 30.9375" fill="none" fill-rule="evenodd"/><path d="M2820 1980 3035.68 1980" stroke="#00B050" stroke-width="10.3125" stroke-miterlimit="8" stroke-dasharray="41.25 30.9375" fill="none" fill-rule="evenodd"/><path d="M0.135823-5.15446 41.3715-4.06787 41.0999 6.24105-0.135823 5.15446ZM72.2983-3.25293 94.8178-2.65953 94.5462 7.64939 72.0266 7.05599ZM89.935-13.1043 120.454 3.17405 89.1201 17.8225Z" fill="#00B050" transform="matrix(-1 0 0 1 2820.45 2243)"/><path d="M2692 2328.84 2863.43 2328.84 2863.43 2393.92 2858.28 2388.77 2998.77 2388.77 2998.77 2399.08 2853.12 2399.08 2853.12 2334 2858.28 2339.16 2692 2339.16ZM2993.62 2378.45 3024.55 2393.92 2993.62 2409.39Z" fill="#00B050"/><path d="M3865.89 1814.95 3907.14 1814.95 3907.14 1825.26 3865.89 1825.26ZM3938.08 1814.95 3948.39 1814.95 3943.23 1820.1 3943.23 1789.17 3953.55 1789.17 3953.55 1825.26 3938.08 1825.26ZM3943.23 1758.23 3943.23 1716.98 3953.55 1716.98 3953.55 1758.23ZM3943.23 1686.04 3943.23 1644.79 3953.55 1644.79 3953.55 1686.04ZM3943.23 1613.85 3943.23 1572.6 3953.55 1572.6 3953.55 1613.85ZM3943.23 1541.67 3943.23 1500.42 3953.55 1500.42 3953.55 1541.67ZM3943.23 1469.48 3943.23 1428.23 3953.55 1428.23 3953.55 1469.48ZM3943.23 1397.29 3943.23 1356.04 3953.55 1356.04 3953.55 1397.29ZM3943.23 1325.1 3943.23 1283.85 3953.55 1283.85 3953.55 1325.1ZM3943.23 1252.92 3943.23 1211.67 3953.55 1211.67 3953.55 1252.92ZM3932.12 1202.16 3890.87 1202.16 3890.87 1191.84 3932.12 1191.84ZM3859.93 1202.16 3818.68 1202.16 3818.68 1191.84 3859.93 1191.84ZM3787.74 1202.16 3746.49 1202.16 3746.49 1191.84 3787.74 1191.84ZM3715.56 1202.16 3674.31 1202.16 3674.31 1191.84 3715.56 1191.84ZM3643.37 1202.16 3602.12 1202.16 3602.12 1191.84 3643.37 1191.84ZM3571.18 1202.16 3529.93 1202.16 3529.93 1191.84 3571.18 1191.84ZM3498.99 1202.16 3457.74 1202.16 3457.74 1191.84 3498.99 1191.84ZM3426.81 1202.16 3385.56 1202.16 3385.56 1191.84 3426.81 1191.84ZM3354.62 1202.16 3313.37 1202.16 3313.37 1191.84 3354.62 1191.84ZM3282.43 1202.16 3241.18 1202.16 3241.18 1191.84 3282.43 1191.84ZM3210.24 1202.16 3168.99 1202.16 3168.99 1191.84 3210.24 1191.84ZM3138.06 1202.16 3096.81 1202.16 3096.81 1191.84 3138.06 1191.84ZM3065.87 1202.16 3024.62 1202.16 3024.62 1191.84 3065.87 1191.84ZM2993.68 1202.16 2952.43 1202.16 2952.43 1191.84 2993.68 1191.84ZM2921.49 1202.16 2880.24 1202.16 2880.24 1191.84 2921.49 1191.84ZM2849.31 1202.16 2808.06 1202.16 2808.06 1191.84 2849.31 1191.84ZM2777.12 1202.16 2735.87 1202.16 2735.87 1191.84 2777.12 1191.84ZM2723.94 1212.47 2693 1197 2723.94 1181.53Z" fill="#FF0000"/><path d="M0 5.15625-41.25 5.15625-41.25-5.15625 0-5.15625ZM-72.1875 5.15625-82.5038 5.15625-77.3475 0-77.3475 30.9337-87.66 30.9337-87.66-5.15625-72.1875-5.15625ZM-77.3475 61.8712-77.3475 103.121-87.66 103.121-87.66 61.8712ZM-77.3475 134.059-77.3475 175.309-87.66 175.309-87.66 134.059ZM-77.3475 206.246-77.3475 247.496-87.66 247.496-87.66 206.246ZM-77.3475 278.434-77.3475 319.684-87.66 319.684-87.66 278.434ZM-77.3475 350.621-77.3475 391.871-87.66 391.871-87.66 350.621ZM-77.3475 422.809-77.3475 464.059-87.66 464.059-87.66 422.809ZM-77.3475 494.996-77.3475 536.246-87.66 536.246-87.66 494.996ZM-77.3475 567.184-77.3475 608.434-87.66 608.434-87.66 567.184ZM-77.3475 639.371-77.3475 680.621-87.66 680.621-87.66 639.371ZM-77.3475 711.559-77.3475 752.809-87.66 752.809-87.66 711.559ZM-77.3475 783.746-77.3475 824.996-87.66 824.996-87.66 783.746ZM-77.3475 855.934-77.3475 897.184-87.66 897.184-87.66 855.934ZM-75.2702 915.731-34.0202 915.731-34.0202 926.044-75.2702 926.044ZM-3.08273 915.731 38.1673 915.731 38.1673 926.044-3.08273 926.044ZM69.1048 915.731 110.355 915.731 110.355 926.044 69.1048 926.044ZM141.292 915.731 182.542 915.731 182.542 926.044 141.292 926.044ZM213.48 915.731 254.73 915.731 254.73 926.044 213.48 926.044ZM285.667 915.731 326.917 915.731 326.917 926.044 285.667 926.044ZM357.855 915.731 399.105 915.731 399.105 926.044 357.855 926.044ZM430.042 915.731 471.292 915.731 471.292 926.044 430.042 926.044ZM502.23 915.731 543.48 915.731 543.48 926.044 502.23 926.044ZM574.417 915.731 615.667 915.731 615.667 926.044 574.417 926.044ZM646.605 915.731 687.855 915.731 687.855 926.044 646.605 926.044ZM718.792 915.731 760.042 915.731 760.042 926.044 718.792 926.044ZM790.98 915.731 832.23 915.731 832.23 926.044 790.98 926.044ZM863.167 915.731 904.417 915.731 904.417 926.044 863.167 926.044ZM935.355 915.731 976.605 915.731 976.605 926.044 935.355 926.044ZM1007.54 915.731 1048.79 915.731 1048.79 926.044 1007.54 926.044ZM1079.73 915.731 1105.65 915.731 1105.65 926.044 1079.73 926.044ZM1100.49 905.419 1131.43 920.888 1100.49 936.356Z" fill="#FF0000" transform="matrix(-1 0 0 1 3865.43 2202)"/><path d="M0 0 254.809 1.02349" stroke="#000000" stroke-width="10.3125" stroke-miterlimit="8" fill="none" fill-rule="evenodd" transform="matrix(1 0 0 -1 1567 870.023)"/><path d="M2276 2626 2276 2703.95" stroke="#000000" stroke-width="10.3125" stroke-miterlimit="8" fill="none" fill-rule="evenodd"/><path d="M2272 3541 2272 3618.95" stroke="#000000" stroke-width="10.3125" stroke-miterlimit="8" fill="none" fill-rule="evenodd"/><path d="M0 0 0.28727 94.2896" stroke="#000000" stroke-width="10.3125" stroke-miterlimit="8" fill="none" fill-rule="evenodd" transform="matrix(-1 0 0 1 2274.29 4547)"/><rect x="2898.5" y="3484.5" width="1134" height="1607" stroke="#000000" stroke-width="4.58333" stroke-miterlimit="8" fill="none"/><path d="M2951 3693.84 2992.25 3693.84 2992.25 3704.16 2951 3704.16ZM3023.19 3693.84 3064.44 3693.84 3064.44 3704.16 3023.19 3704.16ZM3095.38 3693.84 3120.1 3693.84 3120.1 3704.16 3095.38 3704.16ZM3114.94 3683.53 3145.88 3699 3114.94 3714.47Z"/><text font-family="Arial,Arial_MSFontService,sans-serif" font-weight="400" font-size="50" transform="matrix(1 0 0 1 3200.42 3717)">Input</text><path d="M2951 3803.84 3120.1 3803.84 3120.1 3814.16 2951 3814.16ZM3114.94 3793.53 3145.88 3809 3114.94 3824.47Z"/><text font-family="Arial,Arial_MSFontService,sans-serif" font-weight="400" font-size="50" transform="matrix(1 0 0 1 3200.42 3827)">Output</text><path d="M2951 3920.84 2992.25 3920.84 2992.25 3931.16 2951 3931.16ZM3023.19 3920.84 3064.44 3920.84 3064.44 3931.16 3023.19 3931.16ZM3095.38 3920.84 3120.1 3920.84 3120.1 3931.16 3095.38 3931.16ZM3114.94 3910.53 3145.88 3926 3114.94 3941.47Z" fill="#7F7F7F"/><text font-family="Arial,Arial_MSFontService,sans-serif" font-weight="400" font-size="50" transform="matrix(1 0 0 1 3200.42 3945)">Optional parameters input to <tspan font-size="50" x="0" y="61">select ED</tspan><tspan font-size="50" x="215.99" y="61">-</tspan><tspan font-size="50" x="232.604" y="61">induced pathways</tspan></text><path d="M2951 4339.84 3120.1 4339.84 3120.1 4350.16 2951 4350.16ZM3114.94 4329.53 3145.88 4345 3114.94 4360.47Z" fill="#FF0000"/><path d="M2951 4306.84 2992.25 4306.84 2992.25 4317.16 2951 4317.16ZM3023.19 4306.84 3064.44 4306.84 3064.44 4317.16 3023.19 4317.16ZM3095.38 4306.84 3120.1 4306.84 3120.1 4317.16 3095.38 4317.16ZM3114.94 4296.53 3145.88 4312 3114.94 4327.47Z" fill="#FF0000"/><text font-family="Arial,Arial_MSFontService,sans-serif" font-weight="400" font-size="50" transform="matrix(1 0 0 1 3200.42 4286)">Pipeline<tspan font-size="50" x="201.804" y="0">for</tspan><tspan font-size="50" x="281.577" y="0">training</tspan><tspan font-size="50" x="468.486" y="0">new</tspan><tspan font-size="50" x="582.656" y="0">classifier</tspan><tspan font-size="50" x="0" y="61">from</tspan><tspan font-size="50" x="149.921" y="61">toxicogenomics</tspan><tspan font-size="50" x="547.342" y="61">data</tspan><tspan font-size="50" x="694.948" y="61">and</tspan><tspan font-size="50" x="0" y="121">identification</tspan><tspan font-size="50" x="294.479" y="121">of</tspan><tspan font-size="50" x="350.052" y="121">MoA</tspan><tspan font-size="50" x="467.5" y="121">of</tspan><tspan font-size="50" x="523.073" y="121">EDCs</tspan></text><path d="M2951 4600.84 3120.1 4600.84 3120.1 4611.16 2951 4611.16ZM3114.94 4590.53 3145.88 4606 3114.94 4621.47Z" fill="#00B050"/><path d="M2951 4568.84 2992.25 4568.84 2992.25 4579.16 2951 4579.16ZM3023.19 4568.84 3064.44 4568.84 3064.44 4579.16 3023.19 4579.16ZM3095.38 4568.84 3120.1 4568.84 3120.1 4579.16 3095.38 4579.16ZM3114.94 4558.53 3145.88 4574 3114.94 4589.47Z" fill="#00B050"/><text font-family="Arial,Arial_MSFontService,sans-serif" font-weight="400" font-size="50" transform="matrix(1 0 0 1 3200.42 4547)">Pipeline<tspan font-size="50" x="209.688" y="0">for</tspan><tspan font-size="50" x="297.344" y="0">compiling</tspan><tspan font-size="50" x="540.261" y="0">EDC</tspan><tspan font-size="50" x="647.396" y="0">-</tspan><tspan font-size="50" x="664.011" y="0">class</tspan><tspan font-size="50" x="0" y="61">probability</tspan><tspan font-size="50" x="258.821" y="61">scores</tspan><tspan font-size="50" x="435.715" y="61">based</tspan><tspan font-size="50" x="601.723" y="61">on</tspan><tspan font-size="50" x="686.354" y="61">new</tspan><tspan font-size="50" x="0" y="121">classifiers</tspan></text><path d="M2951 4893.84 3120.1 4893.84 3120.1 4904.16 2951 4904.16ZM3114.94 4883.53 3145.88 4899 3114.94 4914.47Z" fill="#0070C0"/><path d="M2951 4861.84 2992.25 4861.84 2992.25 4872.16 2951 4872.16ZM3023.19 4861.84 3064.44 4861.84 3064.44 4872.16 3023.19 4872.16ZM3095.38 4861.84 3120.1 4861.84 3120.1 4872.16 3095.38 4872.16ZM3114.94 4851.53 3145.88 4867 3114.94 4882.47Z" fill="#0070C0"/><text font-family="Arial,Arial_MSFontService,sans-serif" font-weight="400" font-size="50" transform="matrix(1 0 0 1 3200.42 4779)">Pipeline<tspan font-size="50" x="211.796" y="0">for</tspan><tspan font-size="50" x="301.561" y="0">retrieving</tspan><tspan font-size="50" x="540.261" y="0">EDC</tspan><tspan font-size="50" x="647.396" y="0">-</tspan><tspan font-size="50" x="664.011" y="0">class</tspan><tspan font-size="50" x="0" y="61">probability</tspan><tspan font-size="50" x="309.581" y="61">scores</tspan><tspan font-size="50" x="537.213" y="61">for</tspan><tspan font-size="50" x="674.896" y="61">CTD</tspan><tspan font-size="50" x="0" y="121">compounds</tspan><tspan font-size="50" x="297.917" y="121">or</tspan><tspan font-size="50" x="379.844" y="121">compiling</tspan><tspan font-size="50" x="630.781" y="121">scores</tspan><tspan font-size="50" x="0" y="182">for</tspan><tspan font-size="50" x="75.2813" y="182">new</tspan><tspan font-size="50" x="184.938" y="182">compounds</tspan><tspan font-size="50" x="462.459" y="182">based</tspan><tspan font-size="50" x="616.802" y="182">on</tspan><tspan font-size="50" x="689.792" y="182">pre</tspan><tspan font-size="50" x="762.552" y="182">-</tspan><tspan font-size="50" x="0" y="242">trained</tspan><tspan font-size="50" x="167.865" y="242">classifiers</tspan><tspan font-weight="700" font-size="55" x="158.279" y="-1215">Legends</tspan></text><rect x="1856.5" y="2415.5" width="841" height="107" stroke="#2F528F" stroke-width="4.58333" stroke-miterlimit="8" fill="#D9D9D9"/><text font-family="Arial,Arial_MSFontService,sans-serif" font-weight="700" font-size="55" transform="matrix(1 0 0 1 1903.57 2488)">Uses: <tspan font-weight="400" font-size="55" x="164.427" y="0">Add a new ED</tspan><tspan font-weight="400" font-size="55" x="515.052" y="0">-</tspan><tspan font-weight="400" font-size="55" x="533.385" y="0">classifier</tspan></text><path d="M2951 4083.84 2992.25 4083.84 2992.25 4094.16 2951 4094.16ZM3023.19 4083.84 3064.44 4083.84 3064.44 4094.16 3023.19 4094.16ZM3095.38 4083.84 3120.1 4083.84 3120.1 4094.16 3095.38 4094.16ZM3114.94 4073.53 3145.88 4089 3114.94 4104.47Z" fill="#7030A0"/><text font-family="Arial,Arial_MSFontService,sans-serif" font-weight="400" font-size="50" transform="matrix(1 0 0 1 3200.42 4108)">Optional parameters input to <tspan font-size="50" x="0" y="61">compare classification models</tspan></text></g></svg>