<svg width="1323" height="1701" xmlns="http://www.w3.org/2000/svg" xmlns:xlink="http://www.w3.org/1999/xlink" overflow="hidden"><defs><clipPath id="clip0"><rect x="0" y="0" width="1323" height="1701"/></clipPath></defs><g clip-path="url(#clip0)"><rect x="0" y="0" width="1323" height="1700.95" fill="#FFFFFF"/><path d="M191 215.828C191 205.426 199.432 196.995 209.834 196.995L437.166 196.995C447.568 196.995 456 205.426 456 215.828L456 291.158C456 301.559 447.568 309.991 437.166 309.991L209.834 309.991C199.432 309.991 191 301.559 191 291.158Z" stroke="#000000" stroke-width="2.00025" stroke-miterlimit="8" fill="none" fill-rule="evenodd"/><text font-family="Arial,Arial_MSFontService,sans-serif" font-weight="700" font-size="19" transform="matrix(1 0 0 0.999972 297.62 220)">Home<tspan font-weight="400" font-size="16" x="-91.2582" y="20.0006">•</tspan><tspan font-weight="400" font-size="16" x="-82.057" y="20.0006">Landing page</tspan><tspan font-weight="400" font-size="16" x="-91.2582" y="39.0011">•</tspan><tspan font-weight="400" font-size="16" x="-82.057" y="39.0011">Introduction to EDTox</tspan><tspan font-weight="400" font-size="16" x="-91.2582" y="58.0016">•</tspan><tspan font-weight="400" font-size="16" x="-82.057" y="58.0016">Data used</tspan><tspan font-weight="400" font-size="16" x="-91.2582" y="78.0022">•</tspan><tspan font-weight="400" font-size="16" x="-82.057" y="78.0022">Case study with de</tspan><tspan font-weight="400" font-size="16" x="52.7933" y="78.0022">-</tspan><tspan font-weight="400" font-size="16" x="58.1273" y="78.0022">novo data</tspan></text><path d="M530 184.162C530 159.77 549.774 139.996 574.168 139.996L750.832 139.996C775.226 139.996 795 159.77 795 184.162L795 361.822C795 386.215 775.226 405.989 750.832 405.989L574.168 405.989C549.774 405.989 530 386.215 530 361.822Z" stroke="#000000" stroke-width="2.00025" stroke-miterlimit="8" fill="none" fill-rule="evenodd"/><text font-family="Arial,Arial_MSFontService,sans-serif" font-weight="700" font-size="19" transform="matrix(1 0 0 0.999972 620.207 171)">Summary</text><rect x="541.5" y="187.495" width="244" height="48.9986" stroke="#2F528F" stroke-width="1.3335" stroke-miterlimit="8" fill="none"/><text font-family="Arial,Arial_MSFontService,sans-serif" font-weight="400" font-size="16" transform="matrix(1 0 0 0.999972 560.659 206)">Distribution of EDC scores of <tspan font-size="16" x="48.4194" y="19.0005">CTD chemicals</tspan></text><rect x="539.5" y="247.493" width="245" height="54.9985" stroke="#2F528F" stroke-width="1.3335" stroke-miterlimit="8" fill="none"/><text font-family="Arial,Arial_MSFontService,sans-serif" font-weight="400" font-size="16" transform="matrix(1 0 0 0.999972 550.806 269)">Bar plot of number of pathways <tspan font-size="16" x="32.2507" y="19.0005">included in application</tspan></text><rect x="539.5" y="313.491" width="244" height="70.998" stroke="#000000" stroke-width="1.3335" stroke-miterlimit="8" fill="none"/><text font-family="Arial,Arial_MSFontService,sans-serif" font-weight="400" font-size="16" transform="matrix(1 0 0 0.999972 553.269 333)">The accuracy of ED<tspan font-size="16" x="140.351" y="0">-</tspan><tspan font-size="16" x="145.685" y="0">classifiers </tspan><tspan font-size="16" x="5.97406" y="19.0005">trained for different exposure </tspan><tspan font-size="16" x="71.509" y="38.0011">scenarios. </tspan></text><path d="M522 493.154C522 467.657 542.67 446.988 568.168 446.988L752.833 446.988C778.33 446.988 799 467.657 799 493.154L799 717.812C799 743.309 778.33 763.979 752.833 763.979L568.168 763.979C542.67 763.979 522 743.309 522 717.812Z" stroke="#000000" stroke-width="2.00025" stroke-miterlimit="8" fill="none" fill-rule="evenodd"/><text font-family="Arial,Arial_MSFontService,sans-serif" font-weight="700" font-size="19" transform="matrix(1 0 0 0.999972 549.785 479)">Toxicogenomics Pipeline</text><rect x="539.5" y="504.486" width="245" height="51.9986" stroke="#2F528F" stroke-width="1.3335" stroke-miterlimit="8" fill="none"/><text font-family="Arial,Arial_MSFontService,sans-serif" font-weight="400" font-size="16" transform="matrix(1 0 0 0.999972 576.403 525)">Add and optimize a new <tspan font-size="16" x="-23.4163" y="19.0005">toxicogenomic</tspan><tspan font-size="16" x="78.4299" y="19.0005">-</tspan><tspan font-size="16" x="83.7638" y="19.0005">based gene net</tspan></text><rect x="539.5" y="570.484" width="245" height="51.9986" stroke="#2F528F" stroke-width="1.3335" stroke-miterlimit="8" fill="none"/><text font-family="Arial,Arial_MSFontService,sans-serif" font-weight="400" font-size="16" transform="matrix(1 0 0 0.999972 554.617 590)">Training new ED<tspan font-size="16" x="117.255" y="0">-</tspan><tspan font-size="16" x="122.589" y="0">classifiers by </tspan><tspan font-size="16" x="1.36682" y="19.0005">using the gene nets and MIEs</tspan></text><rect x="540.5" y="637.482" width="244" height="45.9987" stroke="#2F528F" stroke-width="1.3335" stroke-miterlimit="8" fill="none"/><text font-family="Arial,Arial_MSFontService,sans-serif" font-weight="400" font-size="16" transform="matrix(1 0 0 0.999972 562.612 654)">Prediction on new ‘untested’ <tspan font-size="16" x="58.214" y="19.0005">compounds </tspan></text><path d="M870 493.32C870 468.836 889.849 448.987 914.334 448.987L1091.67 448.987C1116.15 448.987 1136 468.836 1136 493.32L1136 700.646C1136 725.13 1116.15 744.979 1091.67 744.979L914.334 744.979C889.849 744.979 870 725.13 870 700.646Z" stroke="#000000" stroke-width="2.00025" stroke-miterlimit="8" fill="none" fill-rule="evenodd"/><text font-family="Arial,Arial_MSFontService,sans-serif" font-style="italic" font-weight="400" font-size="19" transform="matrix(1 0 0 0.999972 974.899 480)">Output</text><rect x="880.5" y="507.486" width="245" height="44.9987" stroke="#2F528F" stroke-width="1.3335" stroke-miterlimit="8" fill="none"/><text font-family="Arial,Arial_MSFontService,sans-serif" font-weight="400" font-size="16" transform="matrix(1 0 0 0.999972 967.276 533)">F1 scores</text><rect x="880.5" y="563.484" width="245" height="43.9988" stroke="#2F528F" stroke-width="1.3335" stroke-miterlimit="8" fill="none"/><text font-family="Arial,Arial_MSFontService,sans-serif" font-weight="400" font-size="16" transform="matrix(1 0 0 0.999972 938.105 589)">Model parameters</text><rect x="880.5" y="619.483" width="245" height="43.9987" stroke="#4472C4" stroke-width="1.3335" stroke-miterlimit="8" fill="none"/><text font-family="Arial,Arial_MSFontService,sans-serif" font-weight="400" font-size="16" transform="matrix(1 0 0 0.999972 923.497 645)">Elastic net coefficients</text><rect x="880.5" y="674.481" width="245" height="44.9987" stroke="#2F528F" stroke-width="1.3335" stroke-miterlimit="8" fill="none"/><text font-family="Arial,Arial_MSFontService,sans-serif" font-weight="400" font-size="16" transform="matrix(1 0 0 0.999972 889.849 700)">Predicted ED<tspan font-size="16" x="94.0118" y="0">-</tspan><tspan font-size="16" x="99.3458" y="0">class probabilities</tspan></text><path d="M530 827.478C530 805.11 548.133 786.978 570.501 786.978L754.499 786.978C776.867 786.978 795 805.11 795 827.478L795 989.471C795 1011.84 776.867 1029.97 754.499 1029.97L570.501 1029.97C548.133 1029.97 530 1011.84 530 989.471Z" stroke="#000000" stroke-width="2.00025" stroke-miterlimit="8" fill="none" fill-rule="evenodd"/><text font-family="Arial,Arial_MSFontService,sans-serif" font-weight="700" font-size="19" transform="matrix(1 0 0 0.999972 579.119 817)">Pathway activation <tspan font-size="19" x="53.6734" y="23.0006">scores</tspan></text><rect x="539.5" y="860.476" width="245" height="80.9977" stroke="#2F528F" stroke-width="1.3335" stroke-miterlimit="8" fill="none"/><text font-family="Arial,Arial_MSFontService,sans-serif" font-weight="400" font-size="16" transform="matrix(1 0 0 0.999972 550.653 888)">Select pathways based on their <tspan font-size="16" x="21.2493" y="19.0005">average scores and GLM </tspan><tspan font-size="16" x="71.069" y="38.0011">coefficients</tspan></text><rect x="539.5" y="952.473" width="245" height="46.9986" stroke="#2F528F" stroke-width="1.3335" stroke-miterlimit="8" fill="#D9D9D9"/><text font-family="Arial,Arial_MSFontService,sans-serif" font-weight="700" font-size="16" transform="matrix(1 0 0 0.999972 553.82 972)">Uses: <tspan font-weight="400" font-size="16" x="47.8394" y="0">Identification of putative </tspan><tspan font-weight="400" font-size="16" x="23.4229" y="19.0005">mode of action of EDCs</tspan></text><path d="M532 1097.3C532 1072.82 551.849 1052.97 576.334 1052.97L753.666 1052.97C778.151 1052.97 798 1072.82 798 1097.3L798 1279.63C798 1304.11 778.151 1323.96 753.666 1323.96L576.334 1323.96C551.849 1323.96 532 1304.11 532 1279.63Z" stroke="#000000" stroke-width="2.00025" stroke-miterlimit="8" fill="none" fill-rule="evenodd"/><text font-family="Arial,Arial_MSFontService,sans-serif" font-weight="700" font-size="19" transform="matrix(1 0 0 0.999972 568.757 1084)">EDC<tspan font-size="19" x="39.505" y="0">-</tspan><tspan font-size="19" x="45.6724" y="0">class </tspan><tspan font-size="19" x="97.3456" y="0">probability </tspan><tspan font-size="19" x="66.175" y="23.0006">scores</tspan></text><rect x="541.5" y="1112.47" width="245" height="46.9987" stroke="#2F528F" stroke-width="1.3335" stroke-miterlimit="8" fill="none"/><text font-family="Arial,Arial_MSFontService,sans-serif" font-weight="400" font-size="16" transform="matrix(1 0 0 0.999972 557.437 1132)">Average and harmonic sum of <tspan font-size="16" x="4.35388" y="19.0005">EDC</tspan><tspan font-size="16" x="38.0248" y="19.0005">-</tspan><tspan font-size="16" x="43.3588" y="19.0005">class probability scores</tspan></text><rect x="541.5" y="1167.47" width="245" height="46.9987" stroke="#2F528F" stroke-width="1.3335" stroke-miterlimit="8" fill="none"/><text font-family="Arial,Arial_MSFontService,sans-serif" font-weight="400" font-size="16" transform="matrix(1 0 0 0.999972 561.711 1187)">Plot of compound EDC<tspan font-size="16" x="162.354" y="0">-</tspan><tspan font-size="16" x="167.688" y="0">class </tspan><tspan font-size="16" x="40.005" y="19.0005">probability scores</tspan></text><rect x="541.5" y="1222.47" width="244" height="77.9978" stroke="#2F528F" stroke-width="1.3335" stroke-miterlimit="8" fill="#D9D9D9"/><text font-family="Arial,Arial_MSFontService,sans-serif" font-weight="700" font-size="16" transform="matrix(1 0 0 0.999972 552.324 1238)">Uses: <tspan font-weight="400" font-size="16" x="47.8394" y="0">Comparison of the EDC</tspan><tspan font-weight="400" font-size="16" x="216.361" y="0">-</tspan><tspan font-weight="400" font-size="16" x="9.91455" y="19.0005">class probabilities generated </tspan><tspan font-weight="400" font-size="16" x="24.5631" y="38.0011">within different exposure </tspan><tspan font-weight="400" font-size="16" x="76.7563" y="57.0016">scenarios</tspan></text><path d="M529 1394.13C529 1369.74 548.775 1349.96 573.168 1349.96L749.832 1349.96C774.225 1349.96 794 1369.74 794 1394.13L794 1588.79C794 1613.18 774.225 1632.95 749.832 1632.95L573.168 1632.95C548.775 1632.95 529 1613.18 529 1588.79Z" stroke="#000000" stroke-width="2.00025" stroke-miterlimit="8" fill="none" fill-rule="evenodd"/><text font-family="Arial,Arial_MSFontService,sans-serif" font-weight="700" font-size="19" transform="matrix(1 0 0 0.999972 558.764 1381)">Comparison with ToxPi <tspan font-size="19" x="71.649" y="23.0006">Scores </tspan></text><rect x="538.5" y="1415.46" width="245" height="65.9982" stroke="#2F528F" stroke-width="1.3335" stroke-miterlimit="8" fill="none"/><text font-family="Arial,Arial_MSFontService,sans-serif" font-weight="400" font-size="16" transform="matrix(1 0 0 0.999972 558.108 1433)">Scatter plot of average EDC<tspan font-size="16" x="198.858" y="0">-</tspan><tspan font-size="16" x="4.16717" y="19.0005">class probability scores and </tspan><tspan font-size="16" x="56.8138" y="38.0011">ToxPi scores</tspan></text><rect x="538.5" y="1493.46" width="245" height="46.9988" stroke="#2F528F" stroke-width="1.3335" stroke-miterlimit="8" fill="none"/><text font-family="Arial,Arial_MSFontService,sans-serif" font-weight="400" font-size="16" transform="matrix(1 0 0 0.999972 567.662 1521)">Table of compound details</text><rect x="540.5" y="1551.46" width="244" height="59.9983" stroke="#2F528F" stroke-width="1.3335" stroke-miterlimit="8" fill="#D9D9D9"/><text font-family="Arial,Arial_MSFontService,sans-serif" font-weight="700" font-size="16" transform="matrix(1 0 0 0.999972 567.038 1566)">Uses: <tspan font-weight="400" font-size="16" x="47.8394" y="0">Comparison of EDC </tspan><tspan font-weight="400" font-size="16" x="-5.7807" y="19.0005">potential identified by EDTox </tspan><tspan font-weight="400" font-size="16" x="50.6197" y="38.0011">and ToxCast</tspan></text><path d="M190 493.154C190 468.761 209.775 448.987 234.168 448.987L410.832 448.987C435.225 448.987 455 468.761 455 493.154L455 921.806C455 946.199 435.225 965.973 410.832 965.973L234.168 965.973C209.775 965.973 190 946.199 190 921.806Z" stroke="#000000" stroke-width="2.00025" stroke-miterlimit="8" fill="none" fill-rule="evenodd"/><text font-family="Arial,Arial_MSFontService,sans-serif" font-style="italic" font-weight="400" font-size="19" transform="matrix(1 0 0 0.999972 302.103 480)">Input</text><rect x="200.5" y="502.486" width="244" height="56.9983" stroke="#2F528F" stroke-width="1.3335" stroke-miterlimit="8" fill="none"/><text font-family="Arial,Arial_MSFontService,sans-serif" font-weight="400" font-size="16" transform="matrix(1 0 0 0.999972 215.625 525)">Weighted undirected gene co<tspan font-size="16" x="207.073" y="0">-</tspan><tspan font-size="16" x="37.5314" y="19.0005">expression network</tspan></text><rect x="200.5" y="578.484" width="244" height="55.9985" stroke="#2F528F" stroke-width="1.3335" stroke-miterlimit="8" fill="none"/><text font-family="Arial,Arial_MSFontService,sans-serif" font-weight="400" font-size="16" transform="matrix(1 0 0 0.999972 218.816 610)">List of EDCs along with MIEs</text><rect x="200.5" y="653.482" width="244" height="56.9984" stroke="#2F528F" stroke-width="1.3335" stroke-miterlimit="8" fill="none"/><text font-family="Arial,Arial_MSFontService,sans-serif" font-weight="400" font-size="16" transform="matrix(1 0 0 0.999972 214.399 685)">List of decoys along with MIEs</text><rect x="200.5" y="728.48" width="244" height="56.9985" stroke="#2F528F" stroke-width="1.3335" stroke-miterlimit="8" fill="none"/><text font-family="Arial,Arial_MSFontService,sans-serif" font-weight="400" font-size="16" transform="matrix(1 0 0 0.999972 222.983 751)">List of unknown compounds <tspan font-size="16" x="42.5054" y="19.0005">along with MIEs</tspan></text><rect x="200.5" y="804.477" width="244" height="55.9985" stroke="#2F528F" stroke-width="1.3335" stroke-miterlimit="8" fill="none"/><text font-family="Arial,Arial_MSFontService,sans-serif" font-weight="400" font-size="16" transform="matrix(1 0 0 0.999972 217.149 836)">Names of compounds in CTD</text><rect x="200.5" y="879.475" width="244" height="56.9984" stroke="#2F528F" stroke-width="1.3335" stroke-miterlimit="8" fill="none"/><text font-family="Arial,Arial_MSFontService,sans-serif" font-weight="400" font-size="16" transform="matrix(1 0 0 0.999972 219.899 902)">Name of new compound and <tspan font-size="16" x="62.7612" y="19.0005">list of MIEs</tspan></text><path d="M191 1097.14C191 1072.74 210.774 1052.97 235.167 1052.97L411.833 1052.97C436.226 1052.97 456 1072.74 456 1097.14L456 1494.79C456 1519.18 436.226 1538.96 411.833 1538.96L235.167 1538.96C210.774 1538.96 191 1519.18 191 1494.79Z" stroke="#000000" stroke-width="2.00025" stroke-miterlimit="8" fill="none" fill-rule="evenodd"/><text font-family="Arial,Arial_MSFontService,sans-serif" font-style="italic" font-weight="400" font-size="19" transform="matrix(1 0 0 0.999972 239.416 1084)">Optional parameters</text><rect x="206.5" y="1106.47" width="234" height="44.9988" stroke="#2F528F" stroke-width="1.3335" stroke-miterlimit="8" fill="none"/><text font-family="Arial,Arial_MSFontService,sans-serif" font-weight="400" font-size="16" transform="matrix(1 0 0 0.999972 230.877 1132)">GLM Coefficient threshold</text><rect x="206.5" y="1167.47" width="234" height="44.9988" stroke="#2F528F" stroke-width="1.3335" stroke-miterlimit="8" fill="none"/><text font-family="Arial,Arial_MSFontService,sans-serif" font-weight="400" font-size="16" transform="matrix(1 0 0 0.999972 234.734 1194)">Pathway activation score</text><rect x="206.5" y="1228.47" width="234" height="44.9988" stroke="#2F528F" stroke-width="1.3335" stroke-miterlimit="8" fill="none"/><text font-family="Arial,Arial_MSFontService,sans-serif" font-weight="400" font-size="16" transform="matrix(1 0 0 0.999972 253.403 1255)">Pathway databases</text><rect x="206.5" y="1289.46" width="234" height="45.9988" stroke="#2F528F" stroke-width="1.3335" stroke-miterlimit="8" fill="none"/><text font-family="Arial,Arial_MSFontService,sans-serif" font-weight="400" font-size="16" transform="matrix(1 0 0 0.999972 286.241 1316)">Classifiers</text><rect x="206.5" y="1350.46" width="234" height="45.9988" stroke="#2F528F" stroke-width="1.3335" stroke-miterlimit="8" fill="none"/><text font-family="Arial,Arial_MSFontService,sans-serif" font-weight="400" font-size="16" transform="matrix(1 0 0 0.999972 247.266 1377)">Minimum ToxPi score</text><rect x="206.5" y="1411.46" width="234" height="45.9988" stroke="#2F528F" stroke-width="1.3335" stroke-miterlimit="8" fill="none"/><text font-family="Arial,Arial_MSFontService,sans-serif" font-weight="400" font-size="16" transform="matrix(1 0 0 0.999972 250.736 1428)">Minimum EDC-<tspan font-size="16" x="108.18" y="0">class </tspan><tspan font-size="16" x="14.2551" y="19.0005">probability score</tspan></text><rect x="206.5" y="1473.46" width="234" height="44.9988" stroke="#2F528F" stroke-width="1.3335" stroke-miterlimit="8" fill="none"/><text font-family="Arial,Arial_MSFontService,sans-serif" font-weight="400" font-size="16" transform="matrix(1 0 0 0.999972 257.404 1499)">Plot click precision</text><path d="M485.5 530.485 485.5 681.681" stroke="#FF0000" stroke-width="3.00038" stroke-miterlimit="8" stroke-dasharray="12.0015 9.00113" fill="none" fill-rule="evenodd"/><path d="M0 0 41.5302 0.293992" stroke="#FF0000" stroke-width="3.00029" stroke-miterlimit="8" stroke-dasharray="12.0012 9.00088" fill="none" fill-rule="evenodd" transform="matrix(1.00003 0 0 -1 444.5 530.779)"/><path d="M0 0 41.5302 0.293992" stroke="#FF0000" stroke-width="3.00029" stroke-miterlimit="8" stroke-dasharray="12.0012 9.00088" fill="none" fill-rule="evenodd" transform="matrix(1.00003 0 0 -1 443.5 606.777)"/><path d="M0 0 41.5302 0.293992" stroke="#FF0000" stroke-width="3.00029" stroke-miterlimit="8" stroke-dasharray="12.0012 9.00088" fill="none" fill-rule="evenodd" transform="matrix(1.00003 0 0 -1 443.5 681.775)"/><path d="M0.00810824-1.50013 12.0091-1.43526 11.9929 1.56499-0.00810824 1.50013ZM21.0099-1.38661 33.0109-1.32174 32.9946 1.67851 20.9936 1.61364ZM42.0116-1.27309 46.8802-1.24678 46.864 1.75347 41.9954 1.72716ZM45.3964-4.25514 54.3728 0.293887 45.3477 4.74561Z" fill="#FF0000" transform="matrix(1.00003 0 0 -1 485.5 597.777)"/><path d="M0-1.50015 12.0012-1.50015 12.0012 1.50015 0 1.50015ZM21.0021-1.50015 33.0032-1.50015 33.0032 1.50015 21.0021 1.50015ZM42.0041-1.50015 49.2805-1.50015 49.2805 6.22497 46.2802 6.22497 46.2802 0 47.7803 1.50015 42.0041 1.50015ZM49.2805 15.2258 49.2805 27.227 46.2802 27.227 46.2802 15.2258ZM49.2805 36.2279 49.2805 48.2291 46.2802 48.2291 46.2802 36.2279ZM49.2805 57.23 49.2805 69.2311 46.2802 69.2311 46.2802 57.23ZM49.2805 78.232 49.2805 90.2332 46.2802 90.2332 46.2802 78.232ZM50.2251 95.2892 62.2263 95.2892 62.2263 98.2895 50.2251 98.2895ZM71.2271 95.2892 83.2283 95.2892 83.2283 98.2895 71.2271 98.2895ZM86.5598 92.2889 95.5606 96.7893 86.5598 101.29Z" fill="#00B050" transform="matrix(1.00003 0 0 -1 444.5 757.271)"/><path d="M493.5 832.477 493.5 1206.69" stroke="#0070C0" stroke-width="3.00038" stroke-miterlimit="8" stroke-dasharray="12.0015 9.00113" fill="none" fill-rule="evenodd"/><path d="M444.5 832.477 492.874 832.477" stroke="#0070C0" stroke-width="3.00038" stroke-miterlimit="8" stroke-dasharray="12.0015 9.00113" fill="none" fill-rule="evenodd"/><path d="M444.5 909.475 492.874 909.475" stroke="#0070C0" stroke-width="3.00038" stroke-miterlimit="8" stroke-dasharray="12.0015 9.00113" fill="none" fill-rule="evenodd"/><path d="M492.5 1204.97 504.502 1204.97 504.502 1207.97 492.5 1207.97ZM513.503 1204.97 525.504 1204.97 525.504 1207.97 513.503 1207.97ZM525.079 1201.97 534.08 1206.47 525.079 1210.97Z" fill="#0070C0"/><path d="M0 0 0.000104997 319.365" stroke="#7F7F7F" stroke-width="3.00029" stroke-miterlimit="8" stroke-dasharray="12.0012 9.00088" fill="none" fill-rule="evenodd" transform="matrix(-1.00003 0 0 1 468.5 979.473)"/><path d="M440.5 1129.47 468.094 1129.47" stroke="#7F7F7F" stroke-width="3.00038" stroke-miterlimit="8" stroke-dasharray="12.0015 9.00113" fill="none" fill-rule="evenodd"/><path d="M441.5 1190.47 469.094 1190.47" stroke="#7F7F7F" stroke-width="3.00038" stroke-miterlimit="8" stroke-dasharray="12.0015 9.00113" fill="none" fill-rule="evenodd"/><path d="M440.5 1251.46 468.094 1251.47" stroke="#7F7F7F" stroke-width="3.00038" stroke-miterlimit="8" stroke-dasharray="12.0015 9.00113" fill="none" fill-rule="evenodd"/><path d="M440.5 1298.46 468.094 1298.46" stroke="#7F7F7F" stroke-width="3.00038" stroke-miterlimit="8" stroke-dasharray="12.0015 9.00113" fill="none" fill-rule="evenodd"/><path d="M468.5 977.972 480.501 977.972 480.501 980.973 468.5 980.973ZM489.503 977.972 501.504 977.972 501.504 980.973 489.503 980.973ZM510.505 977.972 522.507 977.972 522.507 980.973 510.505 980.973ZM521.388 974.972 530.389 979.473 521.388 983.973Z" fill="#7F7F7F"/><path d="M0-1.50015 12.0012-1.50015 12.0012 1.50015 0 1.50015ZM21.0021-1.50015 33.0032-1.50015 33.0032 1.50015 21.0021 1.50015ZM42.0041-1.50015 48.1524-1.50015 48.1524 7.353 45.1521 7.353 45.1521 0 46.6523 1.50015 42.0041 1.50015ZM48.1524 16.3539 48.1524 28.3551 45.1521 28.3551 45.1521 16.3539ZM48.1524 37.3559 48.1524 49.3571 45.1521 49.3571 45.1521 37.3559ZM48.1524 58.358 48.1524 61.2751 46.6523 59.7749 55.7364 59.7749 55.7364 62.7752 45.1521 62.7752 45.1521 58.358ZM64.7373 59.7749 76.7384 59.7749 76.7384 62.7752 64.7373 62.7752ZM85.7393 59.7749 85.8038 59.7749 85.8038 62.7752 85.7393 62.7752ZM84.3037 56.7746 93.3046 61.2751 84.3037 65.7755Z" fill="#7030A0" transform="matrix(1.00003 0 0 -1 440.5 1312.74)"/><path d="M469.5 1326.46 469.5 1509.79" stroke="#7030A0" stroke-width="3.00038" stroke-miterlimit="8" stroke-dasharray="12.0015 9.00113" fill="none" fill-rule="evenodd"/><path d="M440.5 1327.46 468.968 1327.46" stroke="#7030A0" stroke-width="3.00038" stroke-miterlimit="8" stroke-dasharray="12.0015 9.00113" fill="none" fill-rule="evenodd"/><path d="M441.5 1375.46 469.968 1375.46" stroke="#7030A0" stroke-width="3.00038" stroke-miterlimit="8" stroke-dasharray="12.0015 9.00113" fill="none" fill-rule="evenodd"/><path d="M440.5 1435.46 468.968 1435.46" stroke="#7030A0" stroke-width="3.00038" stroke-miterlimit="8" stroke-dasharray="12.0015 9.00113" fill="none" fill-rule="evenodd"/><path d="M440.5 1498.46 468.968 1498.46" stroke="#7030A0" stroke-width="3.00038" stroke-miterlimit="8" stroke-dasharray="12.0015 9.00113" fill="none" fill-rule="evenodd"/><path d="M469.539 1505.96 481.536 1506.27 481.459 1509.27 469.461 1508.96ZM490.534 1506.5 502.532 1506.81 502.455 1509.81 490.457 1509.5ZM511.53 1507.04 515.618 1507.14 515.541 1510.14 511.453 1510.04ZM514.196 1504.11 523.078 1508.84 513.964 1513.1Z" fill="#7030A0"/><path d="M0 0 0.755245 114.182" stroke="#FF0000" stroke-width="3.00029" stroke-miterlimit="8" fill="none" fill-rule="evenodd" transform="matrix(-1.00003 0 0 1 842.255 528.485)"/><path d="M842.5 527.985 872.955 527.985 872.955 530.985 842.5 530.985ZM871.455 524.985 880.456 529.485 871.455 533.986Z" fill="#FF0000"/><path d="M842.5 585.983 872.955 585.984 872.955 588.984 842.5 588.984ZM871.455 582.983 880.456 587.484 871.455 591.984Z" fill="#FF0000"/><path d="M842.5 639.982 872.955 639.982 872.955 642.982 842.5 642.982ZM871.455 636.982 880.456 641.482 871.455 645.983Z" fill="#FF0000"/><path d="M785.5 588.483 841.378 588.484" stroke="#FF0000" stroke-width="3.00038" stroke-miterlimit="8" fill="none" fill-rule="evenodd"/><path d="M821.5 578.484 821.5 658.303" stroke="#00B050" stroke-width="3.00038" stroke-miterlimit="8" stroke-dasharray="12.0015 9.00113" fill="none" fill-rule="evenodd"/><path d="M821.5 576.484 884.252 576.484" stroke="#00B050" stroke-width="3.00038" stroke-miterlimit="8" stroke-dasharray="12.0015 9.00113" fill="none" fill-rule="evenodd"/><path d="M0.0395161-1.49963 12.0365-1.1835 11.9575 1.81576-0.0395161 1.49963ZM21.0343-0.946401 27.5861-0.773757 27.507 2.2255 20.9553 2.05285ZM26.1655-3.81253 35.0447 0.92345 25.9284 5.18523Z" fill="#00B050" transform="matrix(-1.00003 0 0 1 820.546 652.482)"/><path d="M783.5 677.981 833.378 677.981 833.378 696.914 831.878 695.414 872.754 695.414 872.754 698.415 830.377 698.415 830.377 679.481 831.878 680.981 783.5 680.981ZM871.254 692.414 880.255 696.914 871.254 701.415Z" fill="#00B050"/><path d="M1124.75 528.274 1136.75 528.274 1136.75 531.274 1124.75 531.274ZM1145.75 528.274 1148.75 528.274 1147.25 529.774 1147.25 520.774 1150.25 520.774 1150.25 531.274 1145.75 531.274ZM1147.25 511.773 1147.25 499.772 1150.25 499.772 1150.25 511.773ZM1147.25 490.771 1147.25 478.769 1150.25 478.769 1150.25 490.771ZM1147.25 469.769 1147.25 457.767 1150.25 457.767 1150.25 469.769ZM1147.25 448.767 1147.25 436.765 1150.25 436.765 1150.25 448.767ZM1147.25 427.764 1147.25 415.763 1150.25 415.763 1150.25 427.764ZM1147.25 406.762 1147.25 394.761 1150.25 394.761 1150.25 406.762ZM1147.25 385.76 1147.25 373.759 1150.25 373.759 1150.25 385.76ZM1147.25 364.758 1147.25 352.757 1150.25 352.757 1150.25 364.758ZM1144.02 349.99 1132.01 349.99 1132.01 346.99 1144.02 346.99ZM1123.01 349.99 1111.01 349.99 1111.01 346.99 1123.01 346.99ZM1102.01 349.99 1090.01 349.99 1090.01 346.99 1102.01 346.99ZM1081.01 349.99 1069.01 349.99 1069.01 346.99 1081.01 346.99ZM1060.01 349.99 1048 349.99 1048 346.99 1060.01 346.99ZM1039 349.99 1027 349.99 1027 346.99 1039 346.99ZM1018 349.99 1006 349.99 1006 346.99 1018 346.99ZM996.998 349.99 984.996 349.99 984.996 346.99 996.998 346.99ZM975.995 349.99 963.994 349.99 963.994 346.99 975.995 346.99ZM954.992 349.99 942.991 349.99 942.991 346.99 954.992 346.99ZM933.99 349.99 921.988 349.99 921.988 346.99 933.99 346.99ZM912.987 349.99 900.986 349.99 900.986 346.99 912.987 346.99ZM891.985 349.99 879.983 349.99 879.983 346.99 891.985 346.99ZM870.982 349.99 858.98 349.99 858.98 346.99 870.982 346.99ZM849.979 349.99 837.978 349.99 837.978 346.99 849.979 346.99ZM828.977 349.99 816.975 349.99 816.975 346.99 828.977 346.99ZM807.974 349.99 795.972 349.99 795.972 346.99 807.974 346.99ZM792.501 352.991 783.5 348.49 792.501 343.99Z" fill="#FF0000"/><path d="M0 1.50015-12.0012 1.50015-12.0012-1.50015 0-1.50015ZM-21.0021 1.50015-24.0034 1.50015-22.5033 0-22.5033 8.99978-25.5036 8.99978-25.5036-1.50015-21.0021-1.50015ZM-22.5033 18.0007-22.5033 30.0018-25.5036 30.0018-25.5036 18.0007ZM-22.5033 39.0027-22.5033 51.0039-25.5036 51.0039-25.5036 39.0027ZM-22.5033 60.0048-22.5033 72.006-25.5036 72.006-25.5036 60.0048ZM-22.5033 81.0068-22.5033 93.008-25.5036 93.008-25.5036 81.0068ZM-22.5033 102.009-22.5033 114.01-25.5036 114.01-25.5036 102.009ZM-22.5033 123.011-22.5033 135.012-25.5036 135.012-25.5036 123.011ZM-22.5033 144.013-22.5033 156.014-25.5036 156.014-25.5036 144.013ZM-22.5033 165.015-22.5033 177.016-25.5036 177.016-25.5036 165.015ZM-22.5033 186.017-22.5033 198.018-25.5036 198.018-25.5036 186.017ZM-22.5033 207.019-22.5033 219.02-25.5036 219.02-25.5036 207.019ZM-22.5033 228.021-22.5033 240.022-25.5036 240.022-25.5036 228.021ZM-22.5033 249.023-22.5033 261.024-25.5036 261.024-25.5036 249.023ZM-21.8989 266.421-9.89776 266.421-9.89776 269.421-21.8989 269.421ZM-0.896881 266.421 11.1043 266.421 11.1043 269.421-0.896881 269.421ZM20.1052 266.421 32.1064 266.421 32.1064 269.421 20.1052 269.421ZM41.1072 266.421 53.1084 266.421 53.1084 269.421 41.1072 269.421ZM62.1093 266.421 74.1105 266.421 74.1105 269.421 62.1093 269.421ZM83.1114 266.421 95.1125 266.421 95.1125 269.421 83.1114 269.421ZM104.113 266.421 116.115 266.421 116.115 269.421 104.113 269.421ZM125.115 266.421 137.117 266.421 137.117 269.421 125.115 269.421ZM146.118 266.421 158.119 266.421 158.119 269.421 146.118 269.421ZM167.12 266.421 179.121 266.421 179.121 269.421 167.12 269.421ZM188.122 266.421 200.123 266.421 200.123 269.421 188.122 269.421ZM209.124 266.421 221.125 266.421 221.125 269.421 209.124 269.421ZM230.126 266.421 242.127 266.421 242.127 269.421 230.126 269.421ZM251.128 266.421 263.129 266.421 263.129 269.421 251.128 269.421ZM272.13 266.421 284.131 266.421 284.131 269.421 272.13 269.421ZM293.132 266.421 305.133 266.421 305.133 269.421 293.132 269.421ZM314.134 266.421 321.675 266.421 321.675 269.421 314.134 269.421ZM320.174 263.42 329.175 267.921 320.174 272.421Z" fill="#FF0000" transform="matrix(-1.00003 0 0 1 1124.68 641.482)"/><path d="M0 0 74.1335 0.297772" stroke="#000000" stroke-width="3.00029" stroke-miterlimit="8" fill="none" fill-rule="evenodd" transform="matrix(1.00003 0 0 -1 456.5 253.791)"/><path d="M662.5 764.479 662.5 787.158" stroke="#000000" stroke-width="3.00038" stroke-miterlimit="8" fill="none" fill-rule="evenodd"/><path d="M661.5 1030.47 661.5 1053.15" stroke="#000000" stroke-width="3.00038" stroke-miterlimit="8" fill="none" fill-rule="evenodd"/><path d="M0 0 0.0835777 27.4324" stroke="#000000" stroke-width="3.00029" stroke-miterlimit="8" fill="none" fill-rule="evenodd" transform="matrix(-1.00003 0 0 1 662.584 1323.46)"/><rect x="843.5" y="1014.47" width="330" height="466.987" stroke="#000000" stroke-width="1.3335" stroke-miterlimit="8" fill="none"/><path d="M859.5 1074.97 871.502 1074.97 871.502 1077.97 859.5 1077.97ZM880.503 1074.97 892.504 1074.97 892.504 1077.97 880.503 1077.97ZM901.505 1074.97 908.699 1074.97 908.699 1077.97 901.505 1077.97ZM907.199 1071.97 916.2 1076.47 907.199 1080.97Z"/><text font-family="Arial,Arial_MSFontService,sans-serif" font-weight="400" font-size="15" transform="matrix(1 0 0 0.999972 931.148 1081)">Input</text><path d="M859.5 1106.97 908.699 1106.97 908.699 1109.97 859.5 1109.97ZM907.199 1103.97 916.2 1108.47 907.199 1112.97Z"/><text font-family="Arial,Arial_MSFontService,sans-serif" font-weight="400" font-size="15" transform="matrix(1 0 0 0.999972 931.148 1113)">Output</text><path d="M859.5 1140.97 871.502 1140.97 871.502 1143.97 859.5 1143.97ZM880.503 1140.97 892.504 1140.97 892.504 1143.97 880.503 1143.97ZM901.505 1140.97 908.699 1140.97 908.699 1143.97 901.505 1143.97ZM907.199 1137.97 916.2 1142.47 907.199 1146.97Z" fill="#7F7F7F"/><text font-family="Arial,Arial_MSFontService,sans-serif" font-weight="400" font-size="15" transform="matrix(1 0 0 0.999972 931.148 1147)">Optional parameters input to <tspan font-size="15" x="0" y="18.0005">select ED</tspan><tspan font-size="15" x="62.8413" y="18.0005">-</tspan><tspan font-size="15" x="67.6752" y="18.0005">induced pathways</tspan></text><path d="M859.5 1262.96 908.699 1262.96 908.699 1265.96 859.5 1265.96ZM907.199 1259.96 916.2 1264.46 907.199 1268.97Z" fill="#FF0000"/><path d="M859.5 1253.96 871.502 1253.96 871.502 1256.96 859.5 1256.96ZM880.503 1253.96 892.504 1253.96 892.504 1256.97 880.503 1256.97ZM901.505 1253.96 908.699 1253.96 908.699 1256.97 901.505 1256.97ZM907.199 1250.96 916.2 1255.46 907.199 1259.97Z" fill="#FF0000"/><text font-family="Arial,Arial_MSFontService,sans-serif" font-weight="400" font-size="15" transform="matrix(1 0 0 0.999972 931.148 1247)">Pipeline<tspan font-size="15" x="58.7141" y="0">for</tspan><tspan font-size="15" x="81.9237" y="0">training</tspan><tspan font-size="15" x="136.304" y="0">new</tspan><tspan font-size="15" x="169.521" y="0">classifier</tspan><tspan font-size="15" x="0" y="18.0005">from</tspan><tspan font-size="15" x="43.6188" y="18.0005">toxicogenomics</tspan><tspan font-size="15" x="159.247" y="18.0005">data</tspan><tspan font-size="15" x="202.192" y="18.0005">and</tspan><tspan font-size="15" x="0" y="35.001">identification</tspan><tspan font-size="15" x="85.6775" y="35.001">of</tspan><tspan font-size="15" x="101.846" y="35.001">MoA</tspan><tspan font-size="15" x="136.017" y="35.001">of</tspan><tspan font-size="15" x="152.186" y="35.001">EDCs</tspan></text><path d="M859.5 1338.96 908.699 1338.96 908.699 1341.96 859.5 1341.96ZM907.199 1335.96 916.2 1340.46 907.199 1344.96Z" fill="#00B050"/><path d="M859.5 1329.96 871.502 1329.96 871.502 1332.96 859.5 1332.96ZM880.503 1329.96 892.504 1329.96 892.504 1332.96 880.503 1332.96ZM901.505 1329.96 908.699 1329.96 908.699 1332.96 901.505 1332.96ZM907.199 1326.96 916.2 1331.46 907.199 1335.96Z" fill="#00B050"/><text font-family="Arial,Arial_MSFontService,sans-serif" font-weight="400" font-size="15" transform="matrix(1 0 0 0.999972 931.148 1323)">Pipeline<tspan font-size="15" x="61.0077" y="0">for</tspan><tspan font-size="15" x="86.5109" y="0">compiling</tspan><tspan font-size="15" x="157.187" y="0">EDC</tspan><tspan font-size="15" x="188.357" y="0">-</tspan><tspan font-size="15" x="193.191" y="0">class</tspan><tspan font-size="15" x="0" y="18.0005">probability</tspan><tspan font-size="15" x="75.3028" y="18.0005">scores</tspan><tspan font-size="15" x="126.769" y="18.0005">based</tspan><tspan font-size="15" x="175.069" y="18.0005">on</tspan><tspan font-size="15" x="199.692" y="18.0005">new</tspan><tspan font-size="15" x="0" y="35.001">classifiers</tspan></text><path d="M859.5 1423.96 908.699 1423.96 908.699 1426.96 859.5 1426.96ZM907.199 1420.96 916.2 1425.46 907.199 1429.96Z" fill="#0070C0"/><path d="M859.5 1414.96 871.502 1414.96 871.502 1417.96 859.5 1417.96ZM880.503 1414.96 892.504 1414.96 892.504 1417.96 880.503 1417.96ZM901.505 1414.96 908.699 1414.96 908.699 1417.96 901.505 1417.96ZM907.199 1411.96 916.2 1416.46 907.199 1420.96Z" fill="#0070C0"/><text font-family="Arial,Arial_MSFontService,sans-serif" font-weight="400" font-size="15" transform="matrix(1 0 0 0.999972 931.148 1390)">Pipeline<tspan font-size="15" x="61.6211" y="0">for</tspan><tspan font-size="15" x="87.7377" y="0">retrieving</tspan><tspan font-size="15" x="157.187" y="0">EDC</tspan><tspan font-size="15" x="188.357" y="0">-</tspan><tspan font-size="15" x="193.191" y="0">class</tspan><tspan font-size="15" x="0" y="18.0005">probability</tspan><tspan font-size="15" x="90.0713" y="18.0005">scores</tspan><tspan font-size="15" x="156.3" y="18.0005">for</tspan><tspan font-size="15" x="196.358" y="18.0005">CTD</tspan><tspan font-size="15" x="0" y="35.001">compounds</tspan><tspan font-size="15" x="86.6776" y="35.001">or</tspan><tspan font-size="15" x="110.514" y="35.001">compiling</tspan><tspan font-size="15" x="183.523" y="35.001">scores</tspan><tspan font-size="15" x="0" y="53.0015">for</tspan><tspan font-size="15" x="21.9028" y="53.0015">new</tspan><tspan font-size="15" x="53.8068" y="53.0015">compounds</tspan><tspan font-size="15" x="134.55" y="53.0015">based</tspan><tspan font-size="15" x="179.456" y="53.0015">on</tspan><tspan font-size="15" x="200.692" y="53.0015">pre</tspan><tspan font-size="15" x="221.861" y="53.0015">-</tspan><tspan font-size="15" x="0" y="71.002">trained</tspan><tspan font-size="15" x="48.8395" y="71.002">classifiers</tspan><tspan font-weight="700" font-size="16" x="46.0505" y="-353.01">Legends</tspan></text><rect x="540.5" y="703.48" width="245" height="30.9991" stroke="#2F528F" stroke-width="1.3335" stroke-miterlimit="8" fill="#D9D9D9"/><text font-family="Arial,Arial_MSFontService,sans-serif" font-weight="700" font-size="16" transform="matrix(1 0 0 0.999972 553.836 725)">Uses: <tspan font-weight="400" font-size="16" x="47.8394" y="0">Add a new ED</tspan><tspan font-weight="400" font-size="16" x="149.852" y="0">-</tspan><tspan font-weight="400" font-size="16" x="155.186" y="0">classifier</tspan></text><path d="M859.5 1188.97 871.502 1188.97 871.502 1191.97 859.5 1191.97ZM880.503 1188.97 892.504 1188.97 892.504 1191.97 880.503 1191.97ZM901.505 1188.97 908.699 1188.97 908.699 1191.97 901.505 1191.97ZM907.199 1185.97 916.2 1190.47 907.199 1194.97Z" fill="#7030A0"/><text font-family="Arial,Arial_MSFontService,sans-serif" font-weight="400" font-size="15" transform="matrix(1 0 0 0.999972 931.148 1195)">Optional parameters input to <tspan font-size="15" x="0" y="18.0005">compare classification models</tspan></text></g></svg>